<?xml version="1.0" encoding="utf-8"?>
<!-- Generator: Adobe Illustrator 26.0.3, SVG Export Plug-In . SVG Version: 6.00 Build 0)  -->
<svg version="1.1" id="Layer_1" xmlns="http://www.w3.org/2000/svg" xmlns:xlink="http://www.w3.org/1999/xlink" x="0px" y="0px"
	 viewBox="0 0 595.3 363.2" style="enable-background:new 0 0 595.3 363.2;" xml:space="preserve">
<style type="text/css">
	.st0{clip-path:url(#SVGID_00000038371323064126675860000009430856269443706524_);}
	
		.st1{clip-path:url(#SVGID_00000041265859047660224530000004956713093613516709_);fill-rule:evenodd;clip-rule:evenodd;fill:#CF1720;}
	.st2{clip-path:url(#SVGID_00000041265859047660224530000004956713093613516709_);fill:#CF161F;}
	
		.st3{clip-path:url(#SVGID_00000041265859047660224530000004956713093613516709_);fill:none;stroke:#CF161F;stroke-width:0.55;stroke-miterlimit:10;}
	.st4{clip-path:url(#SVGID_00000041265859047660224530000004956713093613516709_);fill:#CF1720;}
	
		.st5{clip-path:url(#SVGID_00000041265859047660224530000004956713093613516709_);fill:none;stroke:#CF181F;stroke-width:4;stroke-miterlimit:10;}
	.st6{clip-path:url(#SVGID_00000041265859047660224530000004956713093613516709_);fill:#E5E6E7;}
	
		.st7{clip-path:url(#SVGID_00000041265859047660224530000004956713093613516709_);fill:none;stroke:#FFFFFF;stroke-width:0.935;stroke-miterlimit:10;}
	.st8{clip-path:url(#SVGID_00000041265859047660224530000004956713093613516709_);fill:#FFFFFF;}
	.st9{clip-path:url(#SVGID_00000041265859047660224530000004956713093613516709_);fill:#221F20;}
	
		.st10{clip-path:url(#SVGID_00000041265859047660224530000004956713093613516709_);fill:none;stroke:#000000;stroke-width:0.75;stroke-miterlimit:10;}
	.st11{clip-path:url(#SVGID_00000041265859047660224530000004956713093613516709_);fill:#F9B000;}
</style>
<g>
	<g>
		<defs>
			<rect id="SVGID_1_" x="0" y="-22.8" width="595.3" height="425.2"/>
		</defs>
		<clipPath id="SVGID_00000162339481900965920680000008826770441835203742_">
			<use xlink:href="#SVGID_1_"  style="overflow:visible;"/>
		</clipPath>
		<g style="clip-path:url(#SVGID_00000162339481900965920680000008826770441835203742_);">
			<defs>
				<rect id="SVGID_00000014633395637227689930000011510761775114948531_" x="0" y="-22.8" width="595.3" height="425.2"/>
			</defs>
			<clipPath id="SVGID_00000180329306797299957830000000127090522850116769_">
				<use xlink:href="#SVGID_00000014633395637227689930000011510761775114948531_"  style="overflow:visible;"/>
			</clipPath>
			
				<path style="clip-path:url(#SVGID_00000180329306797299957830000000127090522850116769_);fill-rule:evenodd;clip-rule:evenodd;fill:#CF1720;" d="
				M352.9,336h-1H351h-5.7c-1.8,0-3.4-0.7-4.7-1.9c-1.2-1.3-1.9-2.8-1.9-4.7v-9.1h-6.5v6.5h3.9v9.1h-10.4c-1.8,0-3.3-0.7-4.6-2
				c-1.3-1.3-1.9-2.8-1.9-4.7v-11.7c0-1.9,0.6-3.5,1.9-4.7c1.2-1.2,2.8-1.8,4.7-1.8h19.6c1.9,0,3.5,0.6,4.7,1.8
				c1.2,1.2,1.9,2.8,1.9,4.7v9.1h1h31.4h1.9h5.7v-15.6h13v18.3c0,1.8-0.6,3.4-1.9,4.6c-1.3,1.2-2.8,1.9-4.7,1.9h-12.2h-1.9H352.9z
				 M560.7,329.4c0,1.9-0.6,3.4-1.9,4.7c-1.3,1.3-2.8,2-4.6,2h-13.1v-9.1h6.6v-6.5h-6.6v9.1c0,1.9-0.6,3.4-1.9,4.7
				c-1.2,1.3-2.8,1.9-4.7,1.9h-12.2h-1.9H497h-1.9h-8.2h-1h-1v-3c-0.3,0.4-0.6,0.8-1,1.1c-1.3,1.2-2.8,1.9-4.7,1.9h-34.9h-1.9h-15
				h-1.1h-0.9h-5.6c-1.9,0-3.4-0.7-4.7-1.9c-1.2-1.2-1.9-2.8-1.9-4.6v-43h13v40.4h1.1h15h1.9h28.4v-15.6h13.1v15.6h1h8.2h1.9h23.6
				h1.9h5.7v-9.1c0-1.9,0.6-3.5,1.9-4.7c1.2-1.2,2.7-1.8,4.7-1.8h19.6c1.9,0,3.5,0.6,4.7,1.8c1.2,1.2,1.8,2.8,1.8,4.7V329.4z
				 M489.9,299.5c0-1.4-0.5-2.6-1.5-3.6c-1-1.1-2.2-1.6-3.7-1.6c-1.5,0-2.7,0.5-3.7,1.6c-1,1-1.5,2.2-1.5,3.6c0,1.5,0.5,2.7,1.5,3.7
				c1.1,1.1,2.3,1.6,3.7,1.6c1.5,0,2.7-0.5,3.7-1.5C489.4,302.2,489.9,300.9,489.9,299.5 M479.4,299.5c0-1.4-0.5-2.6-1.5-3.6
				c-1-1.1-2.2-1.6-3.7-1.6s-2.7,0.5-3.7,1.6c-1,1-1.5,2.2-1.5,3.6c0,1.5,0.5,2.7,1.6,3.7c1,1.1,2.2,1.6,3.6,1.6
				c1.5,0,2.7-0.5,3.7-1.5C478.9,302.2,479.4,300.9,479.4,299.5 M403.3,299.5c0,1.5-0.5,2.7-1.5,3.7c-1,1-2.2,1.5-3.7,1.5
				c-1.4,0-2.6-0.5-3.7-1.5c-1-1.1-1.5-2.2-1.5-3.7c0-1.5,0.5-2.7,1.5-3.7c1-1,2.2-1.5,3.7-1.5s2.7,0.5,3.7,1.5
				C402.7,296.8,403.3,298,403.3,299.5"/>
			<path style="clip-path:url(#SVGID_00000180329306797299957830000000127090522850116769_);fill:#CF161F;" d="M46.3,331.2
				c-0.3,2.9-2.7,5.1-5.6,5.1c-3.2,0-5.5-2.5-5.5-5.8c0-0.4,0-0.8,0.1-1.2l4-24.6c0.6-4,3.5-6.6,7.4-6.6c3.5,0,6.2,2.1,7.2,5.6
				l3.7,13l3.6-13c1-3.5,3.7-5.6,7.2-5.6c3.8,0,6.7,2.6,7.4,6.6l4,24.6c0.1,0.4,0.1,0.8,0.1,1.2c0,3.3-2.4,5.8-5.6,5.8
				c-2.8,0-5.3-2.2-5.6-5.1l-1.7-14.8l-4.5,15.6c-0.9,3.2-2.3,4.5-4.7,4.5c-2.7,0-4.1-1.2-5.1-4.5l-4.6-15.6L46.3,331.2z"/>
			
				<path style="clip-path:url(#SVGID_00000180329306797299957830000000127090522850116769_);fill:none;stroke:#CF161F;stroke-width:0.55;stroke-miterlimit:10;" d="
				M46.3,331.2c-0.3,2.9-2.7,5.1-5.6,5.1c-3.2,0-5.5-2.5-5.5-5.8c0-0.4,0-0.8,0.1-1.2l4-24.6c0.6-4,3.5-6.6,7.4-6.6
				c3.5,0,6.2,2.1,7.2,5.6l3.7,13l3.6-13c1-3.5,3.7-5.6,7.2-5.6c3.8,0,6.7,2.6,7.4,6.6l4,24.6c0.1,0.4,0.1,0.8,0.1,1.2
				c0,3.3-2.4,5.8-5.6,5.8c-2.8,0-5.3-2.2-5.6-5.1l-1.7-14.8l-4.5,15.6c-0.9,3.2-2.3,4.5-4.7,4.5c-2.7,0-4.1-1.2-5.1-4.5l-4.6-15.6
				L46.3,331.2z"/>
			<path style="clip-path:url(#SVGID_00000180329306797299957830000000127090522850116769_);fill:#CF161F;" d="M95.2,332.2
				c-0.9,2.6-2.9,4.2-5.3,4.2c-3.2,0-5.8-2.5-5.8-5.6c0-1,0.2-2.1,0.6-3.3l8.5-22.8c1.5-4.1,4.6-6.5,8.5-6.5c3.9,0,7,2.4,8.5,6.5
				l8.5,22.8c0.4,1.1,0.6,2.2,0.6,3.3c0,3.1-2.6,5.6-5.8,5.6c-2.5,0-4.5-1.6-5.3-4.2l-0.6-1.8H95.8L95.2,332.2z M99.1,320.1h5.3
				l-2.6-9.9L99.1,320.1z"/>
			
				<path style="clip-path:url(#SVGID_00000180329306797299957830000000127090522850116769_);fill:none;stroke:#CF161F;stroke-width:0.55;stroke-miterlimit:10;" d="
				M95.2,332.2c-0.9,2.6-2.9,4.2-5.3,4.2c-3.2,0-5.8-2.5-5.8-5.6c0-1,0.2-2.1,0.6-3.3l8.5-22.8c1.5-4.1,4.6-6.5,8.5-6.5
				c3.9,0,7,2.4,8.5,6.5l8.5,22.8c0.4,1.1,0.6,2.2,0.6,3.3c0,3.1-2.6,5.6-5.8,5.6c-2.5,0-4.5-1.6-5.3-4.2l-0.6-1.8H95.8L95.2,332.2z
				 M99.1,320.1h5.3l-2.6-9.9L99.1,320.1z"/>
			<path style="clip-path:url(#SVGID_00000180329306797299957830000000127090522850116769_);fill:#CF161F;" d="M122.8,308.8
				c-2.7,0-4.9-2.4-4.9-5.2c0-2.8,2.2-5.1,4.9-5.1H142c2.7,0,4.9,2.4,4.9,5.3c0,2.8-2.2,5.1-4.9,5.1h-4.1v21.5
				c0,3.3-2.6,5.9-5.6,5.9s-5.6-2.7-5.6-6v-21.5H122.8z"/>
			
				<path style="clip-path:url(#SVGID_00000180329306797299957830000000127090522850116769_);fill:none;stroke:#CF161F;stroke-width:0.55;stroke-miterlimit:10;" d="
				M122.8,308.8c-2.7,0-4.9-2.4-4.9-5.2c0-2.8,2.2-5.1,4.9-5.1H142c2.7,0,4.9,2.4,4.9,5.3c0,2.8-2.2,5.1-4.9,5.1h-4.1v21.5
				c0,3.3-2.6,5.9-5.6,5.9s-5.6-2.7-5.6-6v-21.5H122.8z"/>
			<path style="clip-path:url(#SVGID_00000180329306797299957830000000127090522850116769_);fill:#CF161F;" d="M156.2,332.2
				c-0.9,2.6-2.9,4.2-5.3,4.2c-3.2,0-5.8-2.5-5.8-5.6c0-1,0.2-2.1,0.6-3.3l8.5-22.8c1.5-4.1,4.6-6.5,8.5-6.5c3.9,0,7,2.4,8.5,6.5
				l8.5,22.8c0.4,1.1,0.6,2.2,0.6,3.3c0,3.1-2.6,5.6-5.8,5.6c-2.5,0-4.5-1.6-5.3-4.2l-0.6-1.8h-11.9L156.2,332.2z M160.1,320.1h5.3
				l-2.6-9.9L160.1,320.1z"/>
			
				<path style="clip-path:url(#SVGID_00000180329306797299957830000000127090522850116769_);fill:none;stroke:#CF161F;stroke-width:0.55;stroke-miterlimit:10;" d="
				M156.2,332.2c-0.9,2.6-2.9,4.2-5.3,4.2c-3.2,0-5.8-2.5-5.8-5.6c0-1,0.2-2.1,0.6-3.3l8.5-22.8c1.5-4.1,4.6-6.5,8.5-6.5
				c3.9,0,7,2.4,8.5,6.5l8.5,22.8c0.4,1.1,0.6,2.2,0.6,3.3c0,3.1-2.6,5.6-5.8,5.6c-2.5,0-4.5-1.6-5.3-4.2l-0.6-1.8h-11.9
				L156.2,332.2z M160.1,320.1h5.3l-2.6-9.9L160.1,320.1z"/>
			<path style="clip-path:url(#SVGID_00000180329306797299957830000000127090522850116769_);fill:#CF161F;" d="M196.1,330.2
				c0,3.3-2.6,6-5.6,6c-3.2,0-5.7-2.9-5.7-6.6v-25.4c0-3.5,2.5-6.1,5.7-6.1c1.6,0,3.2,1,4.7,2.7l12.5,15.5v-12.2c0-3.3,2.6-6,5.7-6
				c3.1,0,5.6,2.7,5.6,6v26.1c0,3.4-2.5,5.9-5.7,5.9c-1.7,0-3.3-0.8-4.4-2.2l-12.8-16.4V330.2z"/>
			
				<path style="clip-path:url(#SVGID_00000180329306797299957830000000127090522850116769_);fill:none;stroke:#CF161F;stroke-width:0.55;stroke-miterlimit:10;" d="
				M196.1,330.2c0,3.3-2.6,6-5.6,6c-3.2,0-5.7-2.9-5.7-6.6v-25.4c0-3.5,2.5-6.1,5.7-6.1c1.6,0,3.2,1,4.7,2.7l12.5,15.5v-12.2
				c0-3.3,2.6-6,5.7-6c3.1,0,5.6,2.7,5.6,6v26.1c0,3.4-2.5,5.9-5.7,5.9c-1.7,0-3.3-0.8-4.4-2.2l-12.8-16.4V330.2z"/>
			<path style="clip-path:url(#SVGID_00000180329306797299957830000000127090522850116769_);fill:#CF161F;" d="M234.4,332.2
				c-0.9,2.6-2.9,4.2-5.3,4.2c-3.2,0-5.8-2.5-5.8-5.6c0-1,0.2-2.1,0.6-3.3l8.5-22.8c1.5-4.1,4.6-6.5,8.5-6.5c3.9,0,7,2.4,8.5,6.5
				l8.5,22.8c0.4,1.1,0.6,2.2,0.6,3.3c0,3.1-2.6,5.6-5.8,5.6c-2.5,0-4.5-1.6-5.3-4.2l-0.6-1.8h-11.9L234.4,332.2z M238.2,320.1h5.3
				l-2.6-9.9L238.2,320.1z"/>
			
				<path style="clip-path:url(#SVGID_00000180329306797299957830000000127090522850116769_);fill:none;stroke:#CF161F;stroke-width:0.55;stroke-miterlimit:10;" d="
				M234.4,332.2c-0.9,2.6-2.9,4.2-5.3,4.2c-3.2,0-5.8-2.5-5.8-5.6c0-1,0.2-2.1,0.6-3.3l8.5-22.8c1.5-4.1,4.6-6.5,8.5-6.5
				c3.9,0,7,2.4,8.5,6.5l8.5,22.8c0.4,1.1,0.6,2.2,0.6,3.3c0,3.1-2.6,5.6-5.8,5.6c-2.5,0-4.5-1.6-5.3-4.2l-0.6-1.8h-11.9
				L234.4,332.2z M238.2,320.1h5.3l-2.6-9.9L238.2,320.1z"/>
			<path style="clip-path:url(#SVGID_00000180329306797299957830000000127090522850116769_);fill:#CF161F;" d="M274.2,330.3
				c0,3.3-2.6,6-5.7,6c-3.1,0-5.6-2.7-5.6-6v-26.1c0-3.4,2.6-6,5.7-6c3.2,0,5.7,2.7,5.7,6.1v7.4h11.2v-7.4c0-3.4,2.6-6.1,5.6-6.1
				c3.2,0,5.7,2.7,5.7,6v26.1c0,3.4-2.6,6-5.7,6c-3.1,0-5.6-2.7-5.6-6v-8.3h-11.2V330.3z"/>
			
				<path style="clip-path:url(#SVGID_00000180329306797299957830000000127090522850116769_);fill:none;stroke:#CF161F;stroke-width:0.55;stroke-miterlimit:10;" d="
				M274.2,330.3c0,3.3-2.6,6-5.7,6c-3.1,0-5.6-2.7-5.6-6v-26.1c0-3.4,2.6-6,5.7-6c3.2,0,5.7,2.7,5.7,6.1v7.4h11.2v-7.4
				c0-3.4,2.6-6.1,5.6-6.1c3.2,0,5.7,2.7,5.7,6v26.1c0,3.4-2.6,6-5.7,6c-3.1,0-5.6-2.7-5.6-6v-8.3h-11.2V330.3z"/>
			<path style="clip-path:url(#SVGID_00000180329306797299957830000000127090522850116769_);fill:#CF1720;" d="M434,152.6
				c0,67.3-61.1,121.9-136.4,121.9s-136.4-54.6-136.4-121.9S222.3,30.6,297.6,30.6S434,85.2,434,152.6"/>
			
				<ellipse style="clip-path:url(#SVGID_00000180329306797299957830000000127090522850116769_);fill:none;stroke:#CF181F;stroke-width:4;stroke-miterlimit:10;" cx="297.6" cy="152.6" rx="136.4" ry="121.9"/>
			<path style="clip-path:url(#SVGID_00000180329306797299957830000000127090522850116769_);fill:#E5E6E7;" d="M391,152.6
				c0,46.1-41.8,83.5-93.4,83.5c-51.6,0-93.4-37.4-93.4-83.5s41.8-83.5,93.4-83.5C349.2,69.1,391,106.4,391,152.6"/>
			
				<ellipse style="clip-path:url(#SVGID_00000180329306797299957830000000127090522850116769_);fill:none;stroke:#FFFFFF;stroke-width:0.935;stroke-miterlimit:10;" cx="297.6" cy="152.6" rx="93.4" ry="83.5"/>
			<path style="clip-path:url(#SVGID_00000180329306797299957830000000127090522850116769_);fill:#FFFFFF;" d="M174.5,133.8l2.5,1.7
				l-1.7,2.2l-2.4-1.7L174.5,133.8z M177.9,131.8l2.4,1.9l-1.3,1.7l1.9,1.4l-1.7,2.2l-2.3-1.8l1.3-1.8l-1.9-1.4L177.9,131.8z
				 M190.9,129.2l-1.8,10.9c-0.1,0.5-0.2,1-0.2,1.3c-0.1,0.3-0.1,0.6-0.2,0.8c-0.1,0.3-0.2,0.7-0.4,1.1c-0.4,0.7-0.9,1.2-1.8,1.5
				c-0.8,0.3-1.7,0.4-2.6,0.3c-0.4-0.1-0.7-0.1-1.1-0.3c-0.4-0.1-0.8-0.3-1.2-0.5c-0.5-0.3-0.9-0.5-1.3-0.8
				c-0.4-0.3-0.7-0.6-1.1-0.9l0.6-0.6c0.3,0.2,0.6,0.5,0.9,0.6c0.3,0.2,0.5,0.3,0.7,0.4c0.4,0.2,0.8,0.3,1.1,0.4
				c0.5,0.1,1,0,1.4-0.2c0.5-0.3,0.8-0.6,1-1.1c0.1-0.3,0.2-0.7,0.4-1.1c0.1-0.5,0.2-1,0.3-1.5l1.5-9.4c-0.7,0.1-1.2,0.3-1.5,0.4
				c-0.4,0.1-0.8,0.4-1.4,0.7l-2.8-1.6c1-0.5,1.9-0.8,2.7-0.9c0.7-0.1,1.7,0,3,0.2L190.9,129.2z"/>
			<path style="clip-path:url(#SVGID_00000180329306797299957830000000127090522850116769_);fill:#FFFFFF;" d="M193.1,123.3
				l-0.5,1.8c-0.3,1-0.9,1.6-1.8,1.8c-1,0.2-2.6,0-4.7-0.6l-3.6-1.1c-0.8-0.2-1.5-0.3-2-0.2c-0.2,0-0.6,0.2-1.2,0.5l-2.7-2.3
				c0.8-0.3,1.6-0.4,2.3-0.4c0.8,0,1.8,0.2,3,0.5l2.5,0.7c1.7,0.5,3,0.8,3.7,0.7c0.6,0,1-0.2,1.1-0.6l0.5-1.8L193.1,123.3z"/>
			
				<rect x="189" y="118.9" transform="matrix(0.3493 -0.937 0.937 0.3493 11.9376 258.5881)" style="clip-path:url(#SVGID_00000180329306797299957830000000127090522850116769_);fill:#FFFFFF;" width="6.2" height="3.6"/>
			
				<rect x="191" y="113.9" transform="matrix(0.4027 -0.9153 0.9153 0.4027 10.0478 246.8236)" style="clip-path:url(#SVGID_00000180329306797299957830000000127090522850116769_);fill:#FFFFFF;" width="6.2" height="3.6"/>
			<path style="clip-path:url(#SVGID_00000180329306797299957830000000127090522850116769_);fill:#FFFFFF;" d="M183.9,101.6l1.8,2.4
				l-2.3,1.6l-1.8-2.4L183.9,101.6z M187.9,100.8l1.7,2.5l-1.8,1.2l1.3,1.9l-2.3,1.5l-1.6-2.4l1.8-1.3l-1.4-2L187.9,100.8z
				 M200.4,107.1l-3.8,7.3l-3.2-1.7l3.2-6.1c-0.6-0.2-1.1-0.3-1.6-0.2c-0.3,0-0.8,0.1-1.5,0.3l-2.3-2.4c1-0.2,1.9-0.3,2.7-0.1
				c0.8,0.2,2,0.6,3.4,1.4L200.4,107.1z"/>
			<path style="clip-path:url(#SVGID_00000180329306797299957830000000127090522850116769_);fill:#FFFFFF;" d="M188,93.6
				c0.2,0.2,0.3,0.4,0.3,0.6c0,0.1,0,0.3-0.1,0.5l-0.9,2.8c-0.2-0.3-0.3-0.6-0.3-0.7c0-0.2,0-0.4,0.1-0.8c-0.3,0.1-0.5,0.2-0.7,0.2
				c-0.2,0-0.3,0-0.4-0.1c-0.1-0.1-0.2-0.2-0.3-0.3c-0.1-0.1-0.1-0.3-0.2-0.5c-0.3-0.9-0.3-1.6,0-2c0.1-0.1,0.2-0.2,0.4-0.2
				c0.1,0,0.3,0,0.4,0.1c0.1,0.1,0.2,0.2,0.3,0.3c0.1,0.1,0.1,0.2,0.2,0.5c-0.4,0.2-0.7,0.4-0.8,0.6c-0.1,0.1-0.1,0.3-0.2,0.5
				c0,0.1,0,0.2,0,0.4c0.1,0.1,0.4,0,0.8-0.2c0.4-0.2,0.7-0.4,0.8-0.6C187.7,94.4,187.9,94.1,188,93.6 M199.9,95.7
				c0.2,0.1,0.4,0.3,0.5,0.5c0.1,0.2,0.3,0.5,0.5,0.8c-1.3-0.2-2.4-0.3-3.3-0.2c-1,0.1-1.9,0.4-2.7,0.8c0.3,0.2,0.5,0.4,0.6,0.6
				c0.1,0.2,0.1,0.3,0,0.4c-0.1,0.2-0.6,0.5-1.4,0.8c-0.9,0.3-1.6,0.5-2.2,0.5c-0.4,0-0.9-0.1-1.5-0.4c-0.6-0.3-1.1-0.5-1.4-0.7
				c-0.5-0.4-0.7-0.7-0.5-0.9c0.3-0.4,1-0.9,2-1.4c1.1-0.5,2.2-0.9,3.4-1.2C196.7,94.7,198.6,94.8,199.9,95.7 M208.3,95.1l-0.5,0.8
				c-0.3,0.5-1,0.6-2,0.5c-1.1-0.1-2.1-0.5-3.2-1.2c1.5,1.9,2.2,3.7,2.1,5.3c-0.1,1.6-0.9,3.5-2.4,5.8l-0.9,1.2l-0.7-0.5
				c0.2-0.6,0.3-1.3,0.5-1.9c0.2-0.6,0.3-1.1,0.3-1.5c0.3-2,0.4-3.3,0.4-4.1c0-1.3-0.1-2.4-0.5-3.3c-0.4-1-1.2-1.9-2.4-2.7
				c-0.7-0.5-1.4-0.8-2.1-1.2c-0.7-0.3-1.4-0.6-2.1-1c-0.5-0.3-1.2-1.4-2.1-3.3c1.5,0.5,3.3,1.3,5.3,2.6c1.4,0.9,2.9,1.8,4.4,2.7
				c1.3,0.7,2.1,0.8,2.4,0.4l0.5-0.8L208.3,95.1z"/>
			<path style="clip-path:url(#SVGID_00000180329306797299957830000000127090522850116769_);fill:#FFFFFF;" d="M212.5,90.5l-4.6,5.5
				l-2.7-2.3l3.6-4.3l-7.8-4.5l-1,0.3c-0.4-0.3-0.7-0.7-1-1.2c-0.4-0.6-0.8-1.4-1.2-2.3l0.6-0.3c0,0,0.1,0.1,0.3,0.3
				c0.2,0.2,0.6,0.2,1,0.1c0.4-0.1,0.9-0.3,1.6-0.7c0.4,0.4,0.7,0.9,1,1.3c0.3,0.5,0.6,0.9,0.8,1.3l-0.4,0.2l7.1,4.1L212.5,90.5z"/>
			<path style="clip-path:url(#SVGID_00000180329306797299957830000000127090522850116769_);fill:#FFFFFF;" d="M211.6,66l0.5,2.8
				l-2.1,0.4l0.6,2.3l-2.7,0.6l-0.5-2.6l2.1-0.5l-0.5-2.3L211.6,66z M225.9,77.9l-1.3,1.1c-0.2,0.2-0.5,0.3-0.8,0.4
				c-0.5,0.1-1.2,0.1-1.9-0.2c-1-0.4-2-1.1-3.2-2.3c0,0.9,0,1.6,0,2.1c-0.1,0.7-0.2,1.1-0.5,1.3c-0.1,0.1-0.3,0.2-0.5,0.4l-1.4,0.8
				c-0.6,0.3-1,0.5-1.1,0.6c-0.2,0.1-0.3,0-0.4-0.1c-0.2-0.2-0.4-0.9-0.8-2.3c-0.4-1.3-0.5-2.2-0.5-2.6c0-0.3,0.1-0.8,0.3-1.5
				c0.1-0.4,0.3-0.9,0.5-1.6l0.3-0.8c-0.1-0.1-0.2-0.2-0.3-0.2c-0.1-0.1-0.2-0.2-0.3-0.3c-0.2-0.3-0.4-0.6-0.6-1.1
				c-0.2-0.5-0.4-1.1-0.6-1.9l6.3,5.4c1,0.8,1.8,1.3,2.3,1.5c0.4,0.1,0.7,0,0.9-0.2l1.3-1.1L225.9,77.9z M217.2,75.6l-1.2-1
				c-0.1,0.3-0.2,0.5-0.3,0.7c-0.2,0.5-0.3,0.9-0.4,1.3c0,0.3-0.1,0.5-0.1,0.7c0,0.3,0,0.4,0.1,0.5c0.1,0.1,0.3,0.1,0.5-0.1
				c0.3-0.1,0.5-0.3,0.8-0.5c0.1-0.1,0.3-0.3,0.3-0.5C217,76.4,217.1,76.1,217.2,75.6"/>
			
				<rect x="223.5" y="73.5" transform="matrix(0.803 -0.596 0.596 0.803 -0.2079 149.8803)" style="clip-path:url(#SVGID_00000180329306797299957830000000127090522850116769_);fill:#FFFFFF;" width="6.2" height="3.6"/>
			
				<rect x="227.9" y="70.3" transform="matrix(0.8314 -0.5557 0.5557 0.8314 -1.1032 140.5572)" style="clip-path:url(#SVGID_00000180329306797299957830000000127090522850116769_);fill:#FFFFFF;" width="6.2" height="3.6"/>
			<path style="clip-path:url(#SVGID_00000180329306797299957830000000127090522850116769_);fill:#FFFFFF;" d="M242.8,60l0.5,4
				c-1.7,1.8-3.1,3.2-4.3,4.3c-1,0.9-1.9,1.7-2.6,2.2c-0.5,0.4-1.1,0.8-1.7,1.1l-1,0.6l-1.7-3.1l1.2-0.7c0.2-0.1,0.4-0.2,0.5-0.3
				c0.2-0.2,0.4-0.3,0.6-0.4c-0.7-0.4-1.2-0.7-1.5-1c-0.3-0.3-0.6-0.6-0.9-1.1c-0.6-1.1-0.7-2.4-0.2-3.8c0.5-1.4,1.3-2.4,2.6-3.1
				c0.9-0.5,1.8-0.6,2.9-0.5c1,0.1,1.9,0.5,2.6,1l-0.3,0.7c-0.7,0.1-1.3,0.2-1.7,0.3c-0.4,0.1-0.9,0.3-1.4,0.6
				c-0.9,0.5-1.7,1-2.3,1.6c-0.8,0.7-1.1,1.2-0.9,1.6c0.3,0.5,1.8,0.8,4.6,0.9L242.8,60z"/>
			<path style="clip-path:url(#SVGID_00000180329306797299957830000000127090522850116769_);fill:#FFFFFF;" d="M253,62.4l-1.7,0.7
				c-0.9,0.4-1.8,0.3-2.5-0.3c-0.8-0.6-1.7-2-2.6-4l-1.5-3.4c-0.3-0.8-0.7-1.3-1.1-1.7c-0.2-0.2-0.6-0.4-1.1-0.6l0-3.6
				c0.7,0.4,1.3,0.9,1.8,1.5c0.5,0.6,1,1.5,1.5,2.6l1,2.4c0.7,1.7,1.3,2.8,1.9,3.3c0.4,0.4,0.8,0.6,1.2,0.4l1.7-0.7L253,62.4z"/>
			
				<rect x="251.2" y="58.3" transform="matrix(0.9359 -0.3523 0.3523 0.9359 -4.8488 93.4371)" style="clip-path:url(#SVGID_00000180329306797299957830000000127090522850116769_);fill:#FFFFFF;" width="6.2" height="3.6"/>
			
				<rect x="256.2" y="56.5" transform="matrix(0.9508 -0.3099 0.3099 0.9508 -5.2858 83.2365)" style="clip-path:url(#SVGID_00000180329306797299957830000000127090522850116769_);fill:#FFFFFF;" width="6.2" height="3.6"/>
			<path style="clip-path:url(#SVGID_00000180329306797299957830000000127090522850116769_);fill:#FFFFFF;" d="M269.9,57.1l-7.9,2.1
				l-0.9-3.4l6.7-1.8c-0.2-0.5-0.5-1-0.9-1.3c-0.2-0.2-0.6-0.5-1.2-0.9l0.2-3.3c0.8,0.5,1.5,1.2,1.9,1.9c0.4,0.7,0.9,1.9,1.3,3.4
				L269.9,57.1z M266.3,43.3l-0.8,3.2l-3.4-0.8l0.8-3.3L266.3,43.3z"/>
			<path style="clip-path:url(#SVGID_00000180329306797299957830000000127090522850116769_);fill:#FFFFFF;" d="M290.3,53.7l-13.7,2
				c-0.6,0.1-1.1,0-1.5-0.2c-0.4-0.3-0.8-0.7-1.2-1.4c-0.4,0.9-0.9,1.5-1.4,1.8c-0.4,0.3-1,0.5-1.8,0.6l-1.9,0.3l-0.5-3.5l1.9-0.3
				c1-0.1,1.7-0.5,2.2-1.1c0.5-0.7,0.8-1.7,0.7-3.2l0.9,0c0,0.3,0,0.6,0.1,0.8c0,0.6,0.1,1,0.1,1.4c0.1,0.5,0.3,0.9,0.6,1.1
				c0.3,0.2,0.7,0.3,1.1,0.3c0.4-0.1,0.8-0.2,1.1-0.4c0.3-0.2,0.8-0.7,1.5-1.3l4.2-4c0.5-0.5,0.9-0.8,1.1-1c0.6-0.5,1.2-0.8,1.7-0.8
				c1-0.1,1.8,0.1,2.5,0.7c0.8,0.7,1.3,1.8,1.5,3.4L290.3,53.7z M287.8,49.1c-0.1-0.4-0.4-0.7-1.1-0.8c-0.5-0.1-1.1-0.1-1.8-0.1
				c-0.6,0.1-1.2,0.4-1.8,0.8c-0.7,0.5-1.6,1.3-2.8,2.5l3.4-0.5C286.5,50.7,287.9,50,287.8,49.1"/>
			<path style="clip-path:url(#SVGID_00000180329306797299957830000000127090522850116769_);fill:#FFFFFF;" d="M296.5,53.9l-7.2,0.2
				l-0.1-3.6l5.6-0.2l-1.9-8.8L292,41c0-0.5,0-1,0.2-1.6c0.2-0.7,0.5-1.5,0.9-2.4l0.6,0.3c0,0.1,0,0.2,0,0.4c0,0.3,0.2,0.6,0.6,0.8
				c0.3,0.2,0.9,0.5,1.6,0.8c-0.1,0.6-0.2,1.1-0.3,1.6c-0.1,0.5-0.3,1-0.5,1.4l-0.5-0.2l1.7,8.1L296.5,53.9z"/>
			<path style="clip-path:url(#SVGID_00000180329306797299957830000000127090522850116769_);fill:#FFFFFF;" d="M301.3,50.2
				c0,0.8-0.1,1.5-0.3,2.1c-0.2,0.6-0.6,1.5-1.1,2.6l-0.8-0.3c0.2-1.1,0.3-2,0.4-2.7c0-0.5,0-1.3-0.1-2.3c-0.1-1-0.2-2.1-0.3-3.1
				c-0.1-1-0.3-2.2-0.6-3.6c-0.1-0.5-0.1-0.8-0.1-1c0-0.3,0.1-0.7,0.4-1.4c0.3-0.6,0.7-1.4,1.2-2.3l0.7,4.7c0.3,1.8,0.4,3.3,0.5,4.6
				C301.3,48.3,301.3,49.3,301.3,50.2"/>
			<path style="clip-path:url(#SVGID_00000180329306797299957830000000127090522850116769_);fill:#FFFFFF;" d="M320.7,56l-1.7-0.2
				c-0.3,0-0.6-0.2-0.8-0.3c-0.5-0.3-0.8-0.8-1.1-1.6c-0.3-1-0.5-2.3-0.4-3.9c-0.7,0.6-1.2,1.1-1.6,1.3c-0.5,0.4-1,0.5-1.3,0.5
				c-0.2,0-0.4-0.1-0.6-0.2l-1.5-0.5c-0.7-0.2-1.1-0.4-1.2-0.5c-0.1-0.1-0.2-0.2-0.2-0.4c0-0.2,0.4-0.9,1.2-2.1
				c0.8-1.2,1.3-1.9,1.6-2.1c0.2-0.2,0.7-0.5,1.3-0.7c0.4-0.2,0.9-0.4,1.5-0.7l0.7-0.3c0-0.1,0-0.3,0-0.4c0-0.1,0-0.2,0-0.4
				c0-0.3,0.2-0.7,0.4-1.2c0.2-0.5,0.6-1.1,1.1-1.7l0.1,8.3c0,1.3,0.2,2.2,0.4,2.7c0.2,0.3,0.4,0.5,0.8,0.6l1.7,0.2L320.7,56z
				 M316.7,47.9l0-1.6c-0.3,0.1-0.5,0.2-0.7,0.2c-0.5,0.2-0.9,0.4-1.2,0.5c-0.2,0.1-0.4,0.3-0.6,0.4c-0.2,0.2-0.3,0.3-0.3,0.4
				c0,0.1,0.1,0.2,0.4,0.4c0.3,0.1,0.6,0.2,0.9,0.2c0.2,0,0.4,0,0.6-0.1C315.9,48.3,316.2,48.2,316.7,47.9"/>
			
				<rect x="321.4" y="51.7" transform="matrix(0.2104 -0.9776 0.9776 0.2104 201.5687 359.1881)" style="clip-path:url(#SVGID_00000180329306797299957830000000127090522850116769_);fill:#FFFFFF;" width="3.6" height="6.2"/>
			<path style="clip-path:url(#SVGID_00000180329306797299957830000000127090522850116769_);fill:#FFFFFF;" d="M332.7,59.1l-7.9-2.1
				l0.9-3.4l6.7,1.8c0.1-0.6,0-1.1-0.1-1.6c-0.1-0.3-0.3-0.7-0.6-1.4l1.8-2.7c0.4,0.9,0.7,1.8,0.7,2.6c0,0.8-0.2,2-0.6,3.6
				L332.7,59.1z M336.5,45.3l-2.3,2.4l-2.5-2.3l2.3-2.4L336.5,45.3z"/>
			<path style="clip-path:url(#SVGID_00000180329306797299957830000000127090522850116769_);fill:#FFFFFF;" d="M338.7,61.1l-1.7-0.6
				c-1-0.3-1.5-1-1.7-1.9c-0.2-1,0.1-2.6,0.8-4.7l1.2-3.5c0.3-0.8,0.4-1.5,0.3-2c0-0.2-0.2-0.6-0.4-1.2l2.4-2.7
				c0.3,0.8,0.4,1.6,0.4,2.3c0,0.8-0.2,1.8-0.6,3l-0.8,2.4c-0.6,1.7-0.9,3-0.9,3.7c0,0.6,0.2,1,0.6,1.1l1.7,0.6L338.7,61.1z"/>
			
				<rect x="339.5" y="57.1" transform="matrix(0.3631 -0.9318 0.9318 0.3631 161.3139 356.3676)" style="clip-path:url(#SVGID_00000180329306797299957830000000127090522850116769_);fill:#FFFFFF;" width="3.6" height="6.2"/>
			
				<rect x="344.5" y="59.1" transform="matrix(0.4053 -0.9142 0.9142 0.4053 149.0593 353.5894)" style="clip-path:url(#SVGID_00000180329306797299957830000000127090522850116769_);fill:#FFFFFF;" width="3.6" height="6.2"/>
			<path style="clip-path:url(#SVGID_00000180329306797299957830000000127090522850116769_);fill:#FFFFFF;" d="M354.9,68.4l-7.3-3.7
				l1.6-3.2l6.1,3.1c0.2-0.6,0.3-1.1,0.2-1.6c0-0.3-0.1-0.8-0.3-1.5l2.4-2.3c0.2,1,0.3,1.9,0.1,2.7c-0.2,0.8-0.6,2-1.3,3.4
				L354.9,68.4z M361.1,55.8l-2.4,1.6l-1.3-1.7l-1.9,1.4l-1.5-2.3l2.5-1.7l1.2,1.8l1.9-1.4L361.1,55.8z"/>
			
				<rect x="355.9" y="64.9" transform="matrix(0.504 -0.8637 0.8637 0.504 118.6859 342.6215)" style="clip-path:url(#SVGID_00000180329306797299957830000000127090522850116769_);fill:#FFFFFF;" width="3.6" height="6.2"/>
			<path style="clip-path:url(#SVGID_00000180329306797299957830000000127090522850116769_);fill:#FFFFFF;" d="M368.6,77.3
				c-0.8-0.5-1.5-1.3-2.4-2.3c-0.7-0.9-1.3-1.7-1.7-2.6c-0.8,0.3-1.6,0.4-2.4,0.2c-0.4-0.1-0.8-0.3-1.3-0.7l-2.1-1.5l2-2.9l2.1,1.5
				c0.6,0.4,1.2,0.7,1.7,0.8c0.6,0.1,1.2,0,1.7-0.4c1-0.6,2.1-1,3.1-1.2c0.9-0.1,1.6-0.1,2,0.2c0.4,0.3,0.4,1.1,0.2,2.6
				c-0.2,1.6-0.7,2.8-1.4,3.8L368.6,77.3z M368.9,72.6c0.1-0.2,0.1-0.5,0.1-1.1c0-0.7-0.2-1.1-0.5-1.3c-0.3-0.2-0.7,0-1.4,0.5
				c0.3,0.4,0.5,0.7,0.6,0.9c0.4,0.6,0.7,1,0.8,1C368.7,72.7,368.8,72.7,368.9,72.6"/>
			<path style="clip-path:url(#SVGID_00000180329306797299957830000000127090522850116769_);fill:#FFFFFF;" d="M379.7,96.1l-5.5-1.3
				c-2-2-3.1-3.8-3.3-5.5c-0.2-1.7,0.6-3.3,2.2-4.9c1.1-1.1,2.4-1.9,3.7-2.4c1.3-0.5,2.9-0.7,4.6-0.6c0.4-0.5,0.4-0.9,0.2-1.2
				c-0.1-0.1-0.2-0.1-0.3-0.1c-0.2,0-0.3,0-0.5,0l-0.4-0.5c0.9-0.9,1.8-1.4,2.7-1.6c1.1-0.2,2,0.1,2.8,0.9c0.7,0.7,1.1,1.5,1.1,2.3
				c0.1,0.8-0.2,1.6-0.8,2.2c-0.4,0.4-0.8,0.6-1.3,0.8c-0.6,0.2-1.1,0.1-1.6,0c0,0.7,0.1,1.3,0.3,1.9c0.2,0.4,0.4,0.8,0.7,1l1.3,1.3
				l-2.5,2.5l-1.3-1.3c-0.9-0.9-1.4-1.8-1.6-2.6c-0.2-1-0.1-2.2,0.4-3.7c-1.2-0.2-2.2-0.2-3.2,0c-1,0.2-1.8,0.6-2.4,1.2
				c-1.1,1.1-1.4,2.4-1,3.9c0.4,1.5,1.7,3.3,3.8,5.4c0.3,0.3,0.7,0.7,1,1c0.4,0.4,0.7,0.7,1,0.9L379.7,96.1z"/>
			
				<rect x="384.1" y="88.2" transform="matrix(0.7641 -0.6452 0.6452 0.7641 32.1117 270.4807)" style="clip-path:url(#SVGID_00000180329306797299957830000000127090522850116769_);fill:#FFFFFF;" width="3.6" height="6.2"/>
			
				<rect x="387.5" y="92.4" transform="matrix(0.7973 -0.6036 0.6036 0.7973 21.2306 254.2904)" style="clip-path:url(#SVGID_00000180329306797299957830000000127090522850116769_);fill:#FFFFFF;" width="3.6" height="6.2"/>
			<path style="clip-path:url(#SVGID_00000180329306797299957830000000127090522850116769_);fill:#FFFFFF;" d="M393.7,105.1
				l-4.5-6.8l3-2l3.8,5.8c0.4-0.4,0.8-0.8,1-1.3c0.1-0.2,0.3-0.7,0.5-1.4l3.2-0.8c-0.3,1-0.7,1.8-1.2,2.4c-0.5,0.6-1.5,1.4-2.8,2.3
				L393.7,105.1z M405.6,97.3l-3.3,0.3l-0.4-3.4l3.3-0.3L405.6,97.3z"/>
			
				<rect x="394.5" y="103" transform="matrix(0.8686 -0.4955 0.4955 0.8686 -0.4941 210.3014)" style="clip-path:url(#SVGID_00000180329306797299957830000000127090522850116769_);fill:#FFFFFF;" width="3.6" height="6.2"/>
			
				<rect x="397.1" y="107.8" transform="matrix(0.8952 -0.4457 0.4457 0.8952 -7.6095 189.3808)" style="clip-path:url(#SVGID_00000180329306797299957830000000127090522850116769_);fill:#FFFFFF;" width="3.6" height="6.2"/>
			<path style="clip-path:url(#SVGID_00000180329306797299957830000000127090522850116769_);fill:#FFFFFF;" d="M405.6,133.8
				l-4.4-13.2c-0.2-0.6-0.2-1.1,0-1.6c0.2-0.4,0.6-0.9,1.1-1.4c-0.9-0.3-1.6-0.6-2-1c-0.4-0.4-0.7-0.9-0.9-1.6l-0.6-1.8l3.4-1.1
				l0.6,1.8c0.3,1,0.8,1.6,1.4,1.9c0.8,0.4,1.9,0.4,3.3,0.2l0.2,0.9c-0.3,0.1-0.6,0.1-0.7,0.2c-0.6,0.1-1,0.3-1.3,0.4
				c-0.5,0.2-0.8,0.4-1,0.7c-0.2,0.3-0.2,0.7-0.1,1.1c0.1,0.4,0.3,0.8,0.6,1c0.3,0.3,0.8,0.7,1.6,1.3l4.7,3.4
				c0.5,0.4,0.9,0.7,1.2,0.9c0.6,0.5,0.9,1,1.1,1.6c0.3,0.9,0.2,1.8-0.2,2.6c-0.5,0.9-1.6,1.6-3.1,2.1L405.6,133.8z M409.7,130.5
				c0.4-0.1,0.6-0.5,0.6-1.2c0-0.6-0.1-1.1-0.3-1.7c-0.2-0.5-0.6-1.1-1.1-1.7c-0.6-0.6-1.6-1.3-2.9-2.3l1.1,3.3
				C408,129.5,408.9,130.7,409.7,130.5"/>
			<path style="clip-path:url(#SVGID_00000180329306797299957830000000127090522850116769_);fill:#FFFFFF;" d="M406.8,144.8
				c-0.1-0.9-0.1-2,0.1-3.3c0.2-1.1,0.4-2.1,0.7-3c-0.8-0.4-1.4-0.9-1.7-1.6c-0.2-0.3-0.3-0.8-0.4-1.4l-0.4-2.6l3.5-0.5l0.4,2.6
				c0.1,0.8,0.3,1.4,0.6,1.8c0.3,0.6,0.8,0.9,1.4,1c1.2,0.3,2.2,0.8,3,1.5c0.7,0.6,1.1,1.1,1.2,1.6c0.1,0.4-0.5,1.1-1.8,1.9
				c-1.3,0.9-2.6,1.4-3.7,1.6L406.8,144.8z M410.4,141.8c0.2,0,0.5-0.3,0.9-0.7c0.5-0.5,0.7-0.9,0.6-1.2c0-0.3-0.5-0.6-1.3-0.7
				c-0.1,0.5-0.2,0.8-0.2,1.1c-0.2,0.7-0.2,1.2-0.2,1.2C410.2,141.7,410.3,141.8,410.4,141.8"/>
			<polygon style="clip-path:url(#SVGID_00000180329306797299957830000000127090522850116769_);fill:#FFFFFF;" points="171.8,172.4 
				185.3,168.9 186.4,172.9 177.7,177.7 187.6,177.8 188.6,181.8 175.1,185.3 174.5,182.8 185.1,180 173.8,180.1 173.1,177.5 
				183.1,172.1 172.4,174.9 			"/>
			<path style="clip-path:url(#SVGID_00000180329306797299957830000000127090522850116769_);fill:#FFFFFF;" d="M181.7,201.1
				l-1.2-2.8l2.4-2.4l-2.2-5.1l-3.4,0.2l-1.2-2.7l15-0.7l1.2,2.7L181.7,201.1z M184.7,194.2l4-3.8l-5.5,0.4L184.7,194.2z"/>
			<polygon style="clip-path:url(#SVGID_00000180329306797299957830000000127090522850116769_);fill:#FFFFFF;" points="184.2,205.3 
				194.2,199.4 192.1,195.8 194.2,194.6 199.7,204.1 197.7,205.3 195.6,201.8 185.6,207.7 			"/>
			<path style="clip-path:url(#SVGID_00000180329306797299957830000000127090522850116769_);fill:#FFFFFF;" d="M196.2,222.7
				l-1.8-2.4l1.8-2.9l-3.3-4.4l-3.2,1l-1.8-2.4l14.4-4.1l1.8,2.4L196.2,222.7z M197.5,215.3l3-4.6l-5.3,1.6L197.5,215.3z"/>
			<polygon style="clip-path:url(#SVGID_00000180329306797299957830000000127090522850116769_);fill:#FFFFFF;" points="198.4,225.1 
				208.4,215.3 210.3,217.3 207.6,227.8 214.2,221.3 216.1,223.1 206.1,232.9 204.1,231 206.7,220.6 200.2,227 			"/>
			<path style="clip-path:url(#SVGID_00000180329306797299957830000000127090522850116769_);fill:#FFFFFF;" d="M219.4,243.7
				l-2.4-1.9l1-3.2l-4.3-3.4l-2.9,1.8l-2.3-1.8l12.9-7.7l2.3,1.8L219.4,243.7z M218.7,236.2l1.7-5.3l-4.7,2.9L218.7,236.2z"/>
			<polygon style="clip-path:url(#SVGID_00000180329306797299957830000000127090522850116769_);fill:#FFFFFF;" points="222,245.4 
				229.2,233.4 231.6,234.9 228.8,239.6 233.5,242.4 236.3,237.7 238.7,239.1 231.5,251.1 229.1,249.7 232.2,244.4 227.5,241.6 
				224.4,246.8 			"/>
			<polygon style="clip-path:url(#SVGID_00000180329306797299957830000000127090522850116769_);fill:#FFFFFF;" points="241.2,255.8 
				246.4,242.8 255.2,246.4 254.3,248.6 248.1,246.1 246.9,249.2 252.2,251.3 251.3,253.5 246,251.3 243.8,256.9 			"/>
			<path style="clip-path:url(#SVGID_00000180329306797299957830000000127090522850116769_);fill:#FFFFFF;" d="M257.3,247.1l2.7,0.8
				l-2.1,7.3c-0.3,1.2-0.5,1.9-0.5,2.3c0,0.6,0.1,1.1,0.4,1.6c0.3,0.5,0.9,0.8,1.6,1c0.8,0.2,1.4,0.2,1.9,0c0.5-0.2,0.8-0.5,1-1
				c0.2-0.4,0.5-1.2,0.8-2.3l2.1-7.5l2.7,0.8l-2,7.1c-0.5,1.6-0.9,2.7-1.2,3.4c-0.3,0.6-0.8,1.1-1.3,1.5c-0.5,0.3-1.1,0.6-1.9,0.7
				c-0.7,0.1-1.6,0-2.7-0.3c-1.3-0.4-2.2-0.8-2.8-1.3c-0.6-0.5-1-1-1.2-1.6c-0.2-0.6-0.4-1.1-0.3-1.7c0-0.8,0.3-2,0.7-3.5
				L257.3,247.1z"/>
			<path style="clip-path:url(#SVGID_00000180329306797299957830000000127090522850116769_);fill:#FFFFFF;" d="M268.6,264.6
				l2.2-13.8l5.8,0.9c1.5,0.2,2.5,0.5,3.1,0.9c0.6,0.4,1.1,0.9,1.4,1.6c0.3,0.7,0.4,1.5,0.2,2.3c-0.2,1-0.6,1.8-1.3,2.4
				c-0.7,0.6-1.7,0.9-2.9,0.8c0.5,0.4,1,0.9,1.3,1.4c0.3,0.5,0.7,1.3,1.2,2.5l1.2,3l-3.3-0.5l-1.5-3.3c-0.5-1.2-0.9-1.9-1.1-2.3
				c-0.2-0.3-0.5-0.6-0.7-0.7c-0.3-0.2-0.7-0.3-1.4-0.4l-0.6-0.1l-0.9,5.8L268.6,264.6z M272.6,257l2,0.3c1.3,0.2,2.2,0.3,2.5,0.2
				c0.3-0.1,0.6-0.2,0.9-0.5c0.2-0.2,0.4-0.6,0.4-1c0.1-0.5,0-0.9-0.2-1.2c-0.2-0.3-0.5-0.6-0.9-0.7c-0.2-0.1-0.9-0.2-2-0.4
				l-2.1-0.3L272.6,257z"/>
			<polygon style="clip-path:url(#SVGID_00000180329306797299957830000000127090522850116769_);fill:#FFFFFF;" points="283.9,266.8 
				284.6,252.8 287.3,253 292.4,262.6 292.9,253.3 295.5,253.4 294.8,267.4 292,267.2 286.9,257.8 286.4,266.9 			"/>
			
				<rect x="298.7" y="253.2" transform="matrix(0.9996 -2.651928e-02 2.651928e-02 0.9996 -6.7952 8.0501)" style="clip-path:url(#SVGID_00000180329306797299957830000000127090522850116769_);fill:#FFFFFF;" width="2.8" height="14"/>
			<polygon style="clip-path:url(#SVGID_00000180329306797299957830000000127090522850116769_);fill:#FFFFFF;" points="308.6,266.7 
				307.5,255.2 303.4,255.6 303.2,253.2 314.1,252.2 314.4,254.5 310.3,254.9 311.4,266.5 			"/>
			<path style="clip-path:url(#SVGID_00000180329306797299957830000000127090522850116769_);fill:#FFFFFF;" d="M315.9,251.9l2.7-0.6
				l1.5,7.4c0.2,1.2,0.4,1.9,0.6,2.3c0.2,0.5,0.6,0.9,1.1,1.2c0.5,0.2,1.1,0.3,1.9,0.1c0.8-0.2,1.3-0.4,1.7-0.8
				c0.3-0.4,0.5-0.8,0.5-1.3c0-0.5-0.1-1.3-0.4-2.4l-1.5-7.6l2.7-0.6l1.5,7.2c0.3,1.6,0.5,2.8,0.5,3.5c0,0.7-0.2,1.3-0.5,1.9
				c-0.3,0.5-0.8,1-1.4,1.4c-0.6,0.4-1.4,0.7-2.5,0.9c-1.3,0.3-2.3,0.3-3,0.1c-0.7-0.2-1.3-0.5-1.8-0.9c-0.5-0.4-0.8-0.9-1.1-1.4
				c-0.3-0.8-0.7-1.9-1-3.4L315.9,251.9z"/>
			<path style="clip-path:url(#SVGID_00000180329306797299957830000000127090522850116769_);fill:#FFFFFF;" d="M333.8,262.3
				l-4.3-13.3l5.6-1.8c1.4-0.5,2.5-0.7,3.2-0.6c0.7,0,1.4,0.3,1.9,0.8c0.6,0.5,1,1.1,1.3,1.9c0.3,1,0.3,1.9-0.1,2.8
				c-0.4,0.8-1.1,1.5-2.2,2.1c0.7,0.2,1.3,0.4,1.8,0.7c0.5,0.3,1.2,0.8,2.2,1.7l2.4,2.1l-3.2,1l-2.9-2.3c-1-0.8-1.7-1.3-2-1.5
				c-0.3-0.2-0.7-0.3-1-0.3c-0.3,0-0.8,0.1-1.4,0.3l-0.5,0.2l1.8,5.6L333.8,262.3z M334,253.8l2-0.6c1.3-0.4,2-0.7,2.3-0.9
				c0.3-0.2,0.5-0.5,0.6-0.8c0.1-0.3,0.1-0.7-0.1-1.1c-0.1-0.4-0.4-0.8-0.7-1c-0.3-0.2-0.7-0.3-1.2-0.2c-0.2,0-0.9,0.2-1.9,0.6
				l-2.1,0.7L334,253.8z"/>
			<polygon style="clip-path:url(#SVGID_00000180329306797299957830000000127090522850116769_);fill:#FFFFFF;" points="348.5,257.3 
				342.7,244.5 352,240.3 353,242.4 346.2,245.5 347.5,248.3 353.8,245.5 354.8,247.6 348.5,250.5 350,254 357.1,250.8 358,252.9 
							"/>
			<polygon style="clip-path:url(#SVGID_00000180329306797299957830000000127090522850116769_);fill:#FFFFFF;" points="367,247.9 
				359.3,236.2 367.2,231 368.5,233 362.9,236.7 364.7,239.4 369.5,236.2 370.9,238.2 366,241.4 369.3,246.4 			"/>
			<path style="clip-path:url(#SVGID_00000180329306797299957830000000127090522850116769_);fill:#FFFFFF;" d="M386.7,233.2
				l-2.3,1.9l-3-1.7l-4.3,3.5l1.1,3.2L376,242l-4.7-14.2l2.3-1.9L386.7,233.2z M379.2,232.2l-4.8-2.8l1.9,5.2L379.2,232.2z"/>
			<path style="clip-path:url(#SVGID_00000180329306797299957830000000127090522850116769_);fill:#FFFFFF;" d="M391.3,221l2.5-1.4
				c0.8,1.3,1.2,2.6,1.1,3.8s-0.7,2.4-1.7,3.4c-1.3,1.3-2.7,2-4.5,2c-1.7,0-3.4-0.8-5-2.3c-1.7-1.6-2.6-3.3-2.7-5
				c-0.1-1.7,0.5-3.3,1.8-4.7c1.2-1.2,2.5-1.9,3.9-2c0.9,0,1.8,0.2,2.8,0.7l-1.4,2.5c-0.6-0.4-1.3-0.5-2-0.4
				c-0.7,0.1-1.2,0.4-1.8,0.9c-0.7,0.7-1,1.6-0.9,2.6c0.1,1,0.8,2,2,3.2c1.3,1.2,2.4,1.8,3.4,1.9c1,0.1,1.8-0.3,2.5-1
				c0.5-0.5,0.8-1.2,0.8-1.9C392.2,222.6,391.9,221.9,391.3,221"/>
			<polygon style="clip-path:url(#SVGID_00000180329306797299957830000000127090522850116769_);fill:#FFFFFF;" points="401.2,216.8 
				391.8,210 389.4,213.3 387.5,211.9 394,203.1 395.9,204.5 393.5,207.8 402.9,214.6 			"/>
			<path style="clip-path:url(#SVGID_00000180329306797299957830000000127090522850116769_);fill:#FFFFFF;" d="M400.7,205.8
				c-1.3-0.7-2.2-1.4-2.9-2.3c-0.5-0.6-0.8-1.3-1.1-2c-0.2-0.7-0.3-1.5-0.3-2.2c0.1-0.9,0.4-1.9,0.9-2.9c1-1.8,2.3-2.9,4-3.4
				c1.7-0.5,3.6-0.2,5.6,0.9c2,1.1,3.2,2.5,3.8,4.1c0.5,1.7,0.3,3.4-0.6,5.2c-1,1.8-2.3,2.9-4,3.4
				C404.4,207.2,402.6,206.9,400.7,205.8 M402,203.2c1.4,0.8,2.6,1,3.7,0.8c1.1-0.2,1.9-0.9,2.4-1.8c0.5-1,0.6-2,0.2-3
				c-0.4-1-1.3-1.9-2.7-2.7c-1.4-0.8-2.6-1-3.6-0.8c-1,0.2-1.8,0.9-2.4,1.9c-0.5,1-0.6,2-0.3,3C399.6,201.6,400.5,202.5,402,203.2"
				/>
			<path style="clip-path:url(#SVGID_00000180329306797299957830000000127090522850116769_);fill:#FFFFFF;" d="M414.7,193.6
				l-13.2-4.7l2-5.5c0.5-1.4,1-2.4,1.4-2.9c0.5-0.5,1.1-0.9,1.8-1.1c0.7-0.2,1.5-0.1,2.3,0.2c1,0.4,1.7,0.9,2.1,1.7
				c0.4,0.8,0.5,1.8,0.3,3c0.5-0.4,1.1-0.8,1.6-1c0.5-0.2,1.4-0.5,2.7-0.7l3.1-0.7l-1.1,3.1l-3.5,0.9c-1.3,0.3-2.1,0.5-2.4,0.7
				c-0.4,0.2-0.6,0.4-0.8,0.6c-0.2,0.2-0.4,0.7-0.6,1.3l-0.2,0.5l5.5,2L414.7,193.6z M408.1,188.2l0.7-1.9c0.5-1.3,0.7-2.1,0.7-2.4
				c0-0.4-0.1-0.7-0.3-0.9c-0.2-0.3-0.5-0.5-0.9-0.6c-0.4-0.2-0.8-0.2-1.2,0c-0.4,0.1-0.6,0.4-0.9,0.8c-0.1,0.2-0.4,0.8-0.7,1.9
				l-0.7,2L408.1,188.2z"/>
			<polygon style="clip-path:url(#SVGID_00000180329306797299957830000000127090522850116769_);fill:#FFFFFF;" points="420.3,175.8 
				414.5,174.6 405.5,177.9 406.2,174.7 412.3,172.7 407.5,168.4 408.2,165.3 415.1,171.9 420.8,173.1 			"/>
			<path style="clip-path:url(#SVGID_00000180329306797299957830000000127090522850116769_);fill:#221F20;" d="M257.7,212.3l17-57.1
				c0,0,1.9,11.3,31.1,12.5c0,0,7.9,0.6,18.2-2.3c10.4-2.9,14.1-1,14.1-1s-2.3,31.7,14.2,47.3h-13.5L327.1,179
				c0,0-23.9,5.6-45.7-6.8l-11.7,40.1H257.7z"/>
			
				<path style="clip-path:url(#SVGID_00000180329306797299957830000000127090522850116769_);fill:none;stroke:#000000;stroke-width:0.75;stroke-miterlimit:10;" d="
				M257.7,212.3l17-57.1c0,0,1.9,11.3,31.1,12.5c0,0,7.9,0.6,18.2-2.3c10.4-2.9,14.1-1,14.1-1s-2.3,31.7,14.2,47.3h-13.5L327.1,179
				c0,0-23.9,5.6-45.7-6.8l-11.7,40.1H257.7z"/>
			<path style="clip-path:url(#SVGID_00000180329306797299957830000000127090522850116769_);fill:#F9B000;" d="M241.8,105.7
				c0,0,24.4-2,27,17.4c2.6,19.4,0,37.3,19.9,42.1c19.9,4.8,28.3,1.8,36.2,0c7.2-1.6,13-2.4,20.9,2.6c4.2,2.7,10,0.6,11.3-4.2
				c0.3-1.1,0.5-2.3,0.6-3.8c0.5-11.8-15.7-8.7-20.7-8.4c-5,0.3-29.4,12.6-44.9-0.5c0,0-7.3-3.1-10-24.7c-2.6-21.5-3.7-31-40.4-33.3
				V105.7z"/>
		</g>
	</g>
</g>
</svg>
