<?xml version="1.0" encoding="utf-8"?>
<!-- Generator: Adobe Illustrator 26.0.3, SVG Export Plug-In . SVG Version: 6.00 Build 0)  -->
<svg version="1.1" id="Layer_1" xmlns="http://www.w3.org/2000/svg" xmlns:xlink="http://www.w3.org/1999/xlink" x="0px" y="0px"
	 viewBox="0 0 152 88.6" style="enable-background:new 0 0 152 88.6;" xml:space="preserve">
<style type="text/css">
	.st0{fill:#BD212D;}
	.st1{fill:#BB2231;}
	.st2{fill:#F6F7F3;}
	.st3{fill:#F7F8F5;}
	.st4{fill:#F9F4F3;}
	.st5{fill:#F8F3F1;}
	.st6{fill:#F9F6F3;}
	.st7{fill:#F8F5F3;}
	.st8{fill:#F9F3F3;}
	.st9{fill:#F7F3F0;}
	.st10{fill:#F5F4F2;}
	.st11{fill:#F7F4F0;}
	.st12{fill:#F7F4F1;}
	.st13{fill:#F5F4F1;}
	.st14{fill:#F5F0EB;}
	.st15{fill:#F6F2EE;}
	.st16{fill:#F5F3EE;}
	.st17{fill:#F8F1F0;}
	.st18{fill:#F8F4F1;}
	.st19{fill:#F6F2ED;}
	.st20{fill:#F6EDEA;}
	.st21{fill:#F7F2EE;}
	.st22{fill:#F5F2EE;}
	.st23{fill:#F6EDEC;}
	.st24{fill:#F6E1DD;}
	.st25{fill:#F6DBD7;}
	.st26{fill:#F3D9D9;}
	.st27{fill:#E6E8E7;}
	.st28{fill:#F7F2F0;}
	.st29{fill:#F8E3D6;}
	.st30{fill:#FEE3D9;}
	.st31{fill:#BC212E;}
	.st32{fill:#BE202D;}
	.st33{fill:#BE202E;}
	.st34{fill:#F8F8F1;}
	.st35{fill:#F59422;}
	.st36{fill:#010101;}
	.st37{fill:#EECCA0;}
	.st38{fill:#DEA25D;}
	.st39{fill:#EDC695;}
</style>
<g>
	<path class="st0" d="M76.7,66.3c-7.2,0.2-14.2-1.4-20.8-4.7c-6-3-11.1-7.2-14.4-13.1c-5-8.9-4.7-17.8,0.7-26.4
		c3.3-5.3,7.9-9.1,13.5-11.8C67.3,4.6,79.2,4,91.4,7.9c5.3,1.7,10.1,4.5,14.2,8.3c4.6,4.3,7.7,9.4,8.8,15.6
		c1.1,6.3-0.3,12.2-3.7,17.7c-4.1,6.6-10.2,10.9-17.3,13.7C88.1,65.3,82.6,66.3,76.7,66.3z"/>
	<ellipse class="st0" cx="76.3" cy="36.2" rx="38.5" ry="30.7"/>
	<path class="st1" d="M104.3,73.7c0,0.9-0.8,1.6-1.7,1.5c-0.9,0-1.6-0.8-1.5-1.7c0-0.9,0.8-1.6,1.7-1.5
		C103.6,72,104.3,72.8,104.3,73.7z"/>
	<path class="st1" d="M126.2,73.7c0,0.9-0.8,1.6-1.7,1.5c-0.9,0-1.6-0.8-1.5-1.7c0-0.9,0.8-1.6,1.7-1.5
		C125.5,72,126.2,72.8,126.2,73.7z"/>
	<path class="st1" d="M129.9,73.7c0,0.9-0.8,1.6-1.7,1.5c-0.9,0-1.6-0.8-1.5-1.7c0-0.9,0.8-1.6,1.7-1.5
		C129.2,72,129.9,72.8,129.9,73.7z"/>
	<path class="st2" d="M109.3,30.6c0.6,0.6,0.6,0.8,0,1.4c-0.7,0.6-1.5,0.8-2.4,0.5c-0.3-0.1-0.5-0.2-0.4-0.6
		c0.2-0.7,0.3-1.4-0.3-2.1c-0.6-0.8-0.7-1.9-1.1-2.8c-1.8-3.8-4.7-6.6-8.2-9c-3-2-6.3-3.6-9.7-4.8c-0.3-0.1-0.5-0.2-0.7-0.3
		c-0.3-0.2-0.4-0.4-0.2-0.8c0.3-0.7,0.7-1.3,1-2c0.1-0.3,0.3-0.4,0.6-0.5c0.2-0.1,0.5-0.2,0.7,0c0.2,0.2-0.1,0.4-0.2,0.6
		c-0.2,0.3-0.3,0.7-0.4,1c-0.4,1.1-0.4,1.1,0.7,1.5c5,1.7,9.5,4.2,13.3,7.9c1.1,1.1,2,2.3,3,3.5c0.8,0.7,1,1.7,1.5,2.5
		c0.1,0.2,0.3,0.4,0.3,0.6c0.1,0.5,0.4,0.6,0.8,0.5c0.4,0,0.7,0.1,0.6,0.7c-0.4,1.3-0.3,1.4,0.9,2C109,30.4,109.2,30.5,109.3,30.6z"
		/>
	<path class="st3" d="M69.3,10.6c0.6,1,0.3,1.6-0.9,1.9c-8.3,2-15.2,6.1-20,13.4c-0.5,0.7-0.8,1.5-1.2,2.2c-0.2,0.3-0.5,0.4-0.9,0.4
		c-1-0.3-2.1-0.6-3-1.1c-0.3-0.1-0.5-0.3-0.4-0.6c0.1-0.3,0.4-0.2,0.6-0.2c0.6,0,1.1,0.1,1.7,0.3c0.4,0.2,0.7,0.1,0.9-0.4
		c0.2-0.6,0.6-1.2,1.1-1.6c1.4-2,3-3.9,4.8-5.6c4-3.7,8.7-6.2,14-7.5c0.2-0.1,0.5-0.1,0.7-0.1c0.4-0.1,0.8-0.1,1.3-0.2
		c0.4-0.1,0.8-0.2,0.5-0.7c-0.1-0.3,0-0.6,0.2-0.7C69.1,10.1,69.2,10.4,69.3,10.6z"/>
	<path class="st4" d="M61.8,52.2c-1.9-0.9-3.6-2-5.1-3.5c-0.2-0.3-0.4-0.5-0.8-0.7c-1.6-1.3-2.8-3-3.7-4.8
		c-2.8-5.4-2.4-10.7,0.7-15.8c0.6-0.3,0.7-1,1.1-1.5c0,0,0.1-0.1,0.1-0.1c0.8-0.6,1.4-1.6,2.1-2.3c0,0,0.1-0.1,0.1-0.1
		c0.5-0.2,0.8-0.7,1.2-1l0,0c0.3-0.1,0.6-0.2,0.7,0.2c0,0.4-0.3,0.5-0.6,0.7c-2.3,2-4.1,4.3-5.4,7.1c-0.5,1.2-0.8,2.6-0.9,3.9
		c-0.3,3.2,0.3,6.2,2,9c1.6,2.7,3.8,4.8,6.4,6.6c2.4,1.7,5,2.8,7.8,3.6c0.4,0.1,0.7,0.2,0.9,0.5c0.4,0.5,1,0.5,1.6,0.6
		c0.3,0,0.8,0,0.7,0.5c-1.9-0.2-3.8-0.7-5.6-1.4c-0.4-0.3-0.8-0.4-1.3-0.5c-0.1,0-0.2,0-0.3-0.1C63,52.7,62.4,52.4,61.8,52.2z"/>
	<path class="st5" d="M79.3,16.3c4.1,0.2,7.9,1.3,11.5,3.1c2.5,1.2,4.7,2.9,6.7,4.9c0,0.3,0.3,0.7-0.3,0.8c-0.3,0-0.6-0.3-0.8-0.5
		c-2-2-4.3-3.6-7-4.7c-2.5-1.1-5.2-1.9-7.9-2.4C78.8,17,76,17,73.2,17.3c-1.3,0.2-2.6,0.3-3.9,0.6c-3.5,0.8-6.8,2-9.8,4.1
		c-0.3,0.2-0.6,0.5-1,0.2c-0.2-0.4,0.1-0.5,0.3-0.7l0,0c0.3-0.2,0.7-0.3,1-0.7l0,0c1-0.5,2-1,2.9-1.6l0,0c0.3-0.1,0.8-0.1,1-0.5
		c1.4-0.5,2.8-1,4.3-1.5c0.5-0.1,1-0.1,1.5-0.3l0,0c0.5-0.1,1-0.2,1.5-0.3l0,0c0.9-0.1,1.8-0.2,2.7-0.3l0,0
		C75.4,16.2,77.4,16.2,79.3,16.3z"/>
	<path class="st6" d="M70.8,55.1c-0.1-0.3-0.4-0.4-0.6-0.3c-0.7,0.1-1.2-0.3-1.8-0.4c-0.3-0.1-0.1-0.2,0.1-0.3
		c0.5-0.3,1-0.2,1.5-0.1c2.9,0.7,5.8,0.9,8.6,0.6c2.1-0.2,4.3-0.5,6.4-1.1c2.9-0.8,5.7-2,8.2-3.6c1-0.6,1.8-1.4,2.7-2.2
		c0.8-0.8,1.6-1.4,2.3-2.3c0.2-0.2,0.4-0.6,0.8-0.3c0.1,0.2,0,0.4,0,0.7c-2.3,3.3-5.5,5.4-9.2,7c-5.9,2.6-12.2,3.3-18.6,2.3
		C71,55.2,70.9,55.1,70.8,55.1z"/>
	<path class="st7" d="M70,12c0.3-0.2,0.5-0.3,0.7-0.4c0.9-0.5,0.9-0.8,0.2-1.5c-0.2-0.1-0.3-0.3-0.5-0.4c-0.4-0.3-0.6-0.5-0.7-0.6
		c-0.2-0.4,0.4-1.1,0.6-1.3c-0.1,0-0.3,0.1-0.5,0.2c-0.4,0.2-0.5,0.4-0.7,0.3c-0.2-0.1-0.2-0.4-0.2-0.4c0-0.3,0.1-0.4,0.3-0.5
		c0.2,0,0.5-0.2,0.5,0.3c0,0.5,0.6,0.1,0.8,0.5c0.4,0.7,1.1,1.3,1.7,2c0.3-0.4,0.2-0.8,0.2-1.1c0-0.3,0.1-0.6,0.3-0.8
		c0.2-0.1,0.4-0.4,0.6-0.3c0.2,0.1,0.1,0.4,0.1,0.6c0.1,0.3,0.1,0.5,0.1,0.8c0.2,1.4,0.6,1.6,1.9,1.3c0.4-0.1,0.6-0.4,0.5-0.8
		c-0.1-0.4-0.3-0.8-0.5-1.1c-0.3-0.4-0.2-0.7,0.2-1c0.2-0.2,0.4-0.4,0.7-0.1C76.7,8,77.3,8.1,77,8.7c-0.2,0.3-0.1,0.7,0,1
		c0.2,1.4-0.4,2-1.8,1.9c-0.8,0-1.7,0.4-2.5-0.1c-0.2-0.1-0.4,0.2-0.5,0.3C71.5,12.2,70.8,12.3,70,12z"/>
	<path class="st8" d="M98.8,45.8c0-0.2,0-0.5,0-0.7c-0.3-0.4,0-0.7,0.2-0.9c1.2-1.6,1.9-3.5,2.4-5.5c0.3-1.2,0.4-2.5,0.3-3.8
		c-0.4-3.5-1.7-6.6-4-9.2c-0.2-0.2-0.4-0.4-0.2-0.8c0.4-0.1-0.5-0.6,0.2-0.6c2.9,2.9,4.7,6.4,5,10.6c0.2,3.6-0.8,6.8-2.7,9.8
		C99.5,45.1,99.2,45.5,98.8,45.8z"/>
	<path class="st9" d="M44.6,39.6c0.7,0.1,1.2,0.2,1.7,0.3c0.8,0.1,0.6,0.8,0.6,1.2c0.1,0.5-0.3,0.5-0.7,0.5c-1,0.1-2,0.1-3,0.2
		c-0.4,0-0.6-0.1-0.6-0.5c0-0.4,0.2-0.5,0.6-0.5c0.6,0,1.2-0.1,1.9-0.2c-0.8-0.3-1.4-0.3-2-0.4c-0.3-0.1-0.6-0.1-0.6-0.5
		c0-0.4,0.1-0.6,0.5-0.7c0.6-0.1,1.1-0.3,1.7-0.6c-0.5-0.2-1.1,0-1.6,0c-0.4,0-0.6,0-0.7-0.5c0-0.5,0.3-0.5,0.6-0.5
		c1-0.1,2-0.1,3-0.2c0.3,0,0.7-0.1,0.6,0.3c0,0.5,0.5,1.1-0.3,1.4C45.8,39.1,45.2,39.2,44.6,39.6z"/>
	<path class="st10" d="M93.6,56.8c-0.2-0.4-0.3-0.5-0.3-0.7c0-0.2,0.2-0.3,0.5-0.4c0.4-0.2,0.6-0.1,0.8,0.2c0.4,0.7,0.8,1.4,1.2,2.1
		c0.1,0.2,0.5,0.5,0.2,0.8c-0.3,0.3-0.6,0.6-1.1,0.4c-0.5-0.2-1-0.5-1.7-0.6c0.2,0.3,0.3,0.6,0.5,0.9c0.3,0.4,0.2,0.6-0.2,0.9
		c-0.5,0.3-0.6-0.1-0.8-0.4c-0.4-0.7-0.8-1.3-1.2-2c-0.1-0.2-0.5-0.5-0.1-0.8c0.2-0.2,0.5-0.4,0.7-0.4c0.2,0,0.3,0.1,0.3,0.1
		c0.3,0.1,0.7,0.3,1.4,0.5C93.8,57.3,93.8,57.1,93.6,56.8z"/>
	<path class="st11" d="M56.4,56.3c0.2-0.3,0.4-0.5,0.6-0.8c0.2-0.3,0.4-0.6,0.8-0.2c0.4,0.3,0.4,0.6,0.1,1c-0.5,0.6-0.9,1.2-1.4,1.9
		c-0.2,0.2-0.3,0.6-0.6,0.4c-0.3-0.2-0.7-0.3-0.7-0.8c0-0.6,0-1.2,0-1.8c-0.4,0.1-0.5,0.5-0.7,0.8c-0.3,0.3-0.4,0.6-0.9,0.2
		c-0.5-0.3-0.3-0.6-0.1-1c0.5-0.6,0.9-1.3,1.4-1.9c0.1-0.1,0.3-0.5,0.5-0.3c0.3,0.2,0.8,0.2,0.8,0.8c0,0.6,0,1.2,0,1.7
		C56.3,56.3,56.3,56.3,56.4,56.3z"/>
	<path class="st12" d="M89.5,59.3c0,0,0,0.1,0,0.2c-0.5,0.6,0,0.9,0.4,1.2c0.2,0.2,0.7,0.5,0.4,0.7C90,61.7,89.5,62,89,61.6
		c-0.3-0.2-0.5-0.5-0.7-0.7c-0.1-0.1-0.3-0.2-0.4-0.2c-0.2,0.1-0.1,0.3,0,0.5c0.1,0.5,0.4,1-0.5,1.2c-0.3,0.1-0.5,0-0.6-0.3
		c-0.4-0.9-0.5-1.9-0.8-2.8c-0.1-0.3,0-0.4,0.3-0.5c0.7-0.2,1.4-0.4,2.2-0.6C89.1,58.1,89.6,58.6,89.5,59.3z"/>
	<path class="st13" d="M66.9,59.4c0.1,0.3-0.4,0.6,0.1,0.9c0.6,0.3,0.9,0.2,1.1-0.4c0.1-0.6,0.4-0.5,0.8-0.4
		c0.4,0.1,0.6,0.3,0.4,0.7c-0.3,0.8-0.5,1.7-0.7,2.5c-0.1,0.5-0.4,0.5-0.8,0.4c-0.4-0.1-0.6-0.2-0.5-0.7c0.1-0.3,0.6-0.8-0.2-1
		c-0.5-0.2-0.9-0.2-1,0.5c-0.1,0.5-0.2,0.8-0.8,0.6c-0.6-0.2-0.5-0.5-0.4-1c0.2-0.8,0.5-1.6,0.7-2.4c0.1-0.5,0.5-0.4,0.8-0.3
		C66.7,58.8,67,58.9,66.9,59.4z"/>
	<path class="st5" d="M106.4,41.6c0.4,0,0.8,0.1,0.9,0.4c0.1,0.3,0.1,0.4,0.3,0.5c0.1,0.1,0.2,0,0.9-0.2c0.4-0.1,0.6-0.2,0.7-0.1
		c0,0,0.1,0.1,0.1,0.2c0,0.4-0.1,1-0.6,1.1c-0.1,0-0.3,0-0.4,0.1c-0.3,0.1-0.8,0-0.9,0.4c0,0.4,0.5,0.4,0.8,0.5
		c0.5,0.2,0.3,0.4,0.3,0.7c-0.1,0.3-0.2,0.6-0.7,0.4c-0.9-0.3-1.8-0.6-2.6-0.9c-0.2-0.1-0.4-0.2-0.3-0.4c0.3-0.8,0.4-1.6,0.9-2.4
		C105.8,41.8,106,41.6,106.4,41.6z"/>
	<path class="st14" d="M81.5,63.8c-1,0-1.5-0.4-1.7-1.3c-0.1-0.5-0.1-1.1-0.2-1.6c-0.1-0.4,0-0.7,0.5-0.7c0.5,0,0.7,0.1,0.7,0.6
		c0,0.5,0.1,1,0.2,1.5c0.1,0.4,0.3,0.6,0.7,0.6c0.4-0.1,0.6-0.3,0.5-0.7c0-0.6-0.1-1.2-0.2-1.7c-0.1-0.5,0.3-0.6,0.6-0.6
		c0.4,0,0.6,0,0.6,0.5c0,0.4,0.1,0.8,0.1,1.2C83.7,63.1,83.1,63.8,81.5,63.8z"/>
	<path class="st15" d="M106.6,48.5c-0.1,0.7-0.5,1.4-1.2,1.8c-0.6,0.4-1.2,0.1-1.8-0.2c-0.3-0.2-0.6-0.4-1-0.6
		c-0.3-0.2-0.8-0.4-0.4-1c0.3-0.5,0.7-0.4,1-0.1c0.4,0.3,0.8,0.5,1.1,0.7c0.4,0.2,0.7,0.3,1-0.2c0.3-0.4,0-0.7-0.3-0.9
		c-0.4-0.3-0.8-0.6-1.3-0.8c-0.4-0.2-0.5-0.4-0.2-0.8c0.2-0.4,0.5-0.5,0.9-0.2c0.5,0.3,1,0.6,1.5,0.9
		C106.4,47.5,106.6,47.9,106.6,48.5z"/>
	<path class="st16" d="M62.5,58.2c-0.1,0.9-0.1,1.8-0.3,2.7c0,0.3,0.1,0.7-0.3,0.7c-0.4,0-0.8-0.2-0.9-0.7c-0.2-0.7-0.8-1-1.4-0.7
		c-0.5,0.3-0.8-0.1-1.1-0.4c-0.3-0.3,0.2-0.5,0.4-0.6c0.6-0.6,1.3-1.1,1.9-1.7c0.3-0.3,0.6-0.4,1-0.1C62.2,57.6,62.6,57.7,62.5,58.2
		z"/>
	<path class="st17" d="M44.3,43.6c1,0.1,1.9,0.2,2.9,0.2c0.5,0,0.6,0.4,0.8,0.8c0.2,0.4,0.1,0.6-0.3,0.9c-0.7,0.6-1.4,1.1-2.1,1.7
		c-0.2,0.1-0.4,0.6-0.6,0.2c-0.2-0.3-0.4-0.6-0.2-1c0.4-0.9,0.3-1.2-0.5-1.6c-0.4-0.2-0.4-0.6-0.4-1C43.8,43.5,44.1,43.6,44.3,43.6z
		"/>
	<path class="st18" d="M53.1,51.9c-0.1,0.1-0.1,0.3-0.2,0.5c-0.4,0.7-0.8,1.5-1.3,2.2c-0.1,0.2-0.2,0.7-0.5,0.5
		c-0.3-0.2-0.7-0.4-0.6-0.9c0.1-0.8-0.2-1.2-1-1.2c-0.5,0-0.7-0.4-0.8-0.7c-0.1-0.4,0.3-0.4,0.6-0.5c0.9-0.3,1.7-0.6,2.6-0.8
		C52.3,50.9,53.1,51.5,53.1,51.9z"/>
	<path class="st19" d="M84.4,12.5C84.3,12.5,84.3,12.5,84.4,12.5c-1.5-0.4-2.9-0.7-4.3-0.9c-0.8-0.2-0.8-0.5-0.1-1
		c0.5-0.4,1.1-0.8,1.6-1.1c0.6-0.4,0.8-0.2,0.9,0.4c0.2,1.3,0.2,1.3,1.4,1.6c0.6,0.2,1,0,1.2-0.6c0.1-0.2,0.1-0.4,0.4-0.4
		c0.3,0.1,0.3,0.3,0.3,0.6C85.7,11.9,85.1,12.5,84.4,12.5z"/>
	<path class="st20" d="M75.7,60.1c0.4,0,0.7,0,1.1,0c0.3,0,0.4,0.2,0.4,0.4c0,0.3-0.1,0.4-0.4,0.4c-0.3,0-0.6,0-1,0
		c-0.2,0-0.5,0-0.4,0.3c0,0.2,0.2,0.2,0.4,0.3c0.4,0.1,1.1-0.3,1,0.4c0,0.7-0.7,0.3-1,0.3c-0.6,0.1-0.4,0.5-0.4,0.8
		c0,0.5-0.1,0.8-0.7,0.8c-0.6,0-0.6-0.3-0.6-0.8c0-0.7,0.1-1.5,0-2.2c0-0.6,0.2-0.8,0.8-0.8C75.2,60.2,75.5,60.1,75.7,60.1
		C75.7,60.1,75.7,60.1,75.7,60.1z"/>
	<path class="st21" d="M48.6,47.6c-0.1-0.1-0.1-0.3-0.2-0.4c-0.2-0.3-0.3-0.5,0.1-0.8c0.4-0.3,0.6,0,0.7,0.3
		c0.4,0.7,0.9,1.5,1.3,2.2c0.2,0.3,0.2,0.4-0.1,0.7c-0.3,0.2-0.6,0.3-0.7-0.1c-0.3-0.7-0.7-0.5-1.2-0.2c-0.4,0.3-0.8,0.5-1.2,0.7
		c-0.2,0.2-0.4,0.1-0.6-0.1c-0.5-0.5-0.5-0.8,0.2-1.1c0.5-0.2,0.9-0.5,1.4-0.8C48.5,47.9,48.6,47.8,48.6,47.6z"/>
	<path class="st22" d="M102.7,53.5c-0.2,0.3-0.4,0.5-0.7,0.7c-0.3,0.1-0.4-0.1-0.5-0.2c-0.3-0.3-0.5-0.5-0.8-0.8
		c-0.4-0.5-0.8-1-1.4-0.2c-0.2,0.3-0.4,0.1-0.6-0.1c-0.2-0.2-0.3-0.3-0.1-0.6c0.7-0.7,1.4-1.4,2.1-2.1c0.3-0.3,0.5-0.1,0.7,0.1
		c0.2,0.2,0.2,0.4,0,0.6c-0.6,0.4-0.4,0.8,0,1.2c0.4,0.3,0.7,0.7,1,1C102.6,53.2,102.7,53.3,102.7,53.5z"/>
	<path class="st23" d="M96.9,53.6c0.1,0.1,0.2,0.1,0.3,0.2c0.6,0.7,1.3,1.4,1.9,2c0.4,0.4,0.1,0.6-0.2,0.8c-0.3,0.3-0.5,0.3-0.8,0
		c-0.6-0.7-1.2-1.3-1.9-2c-0.1-0.1-0.4-0.3-0.2-0.5C96.4,54,96.5,53.7,96.9,53.6z"/>
	<path class="st24" d="M69.3,10.6c-0.2,0-0.3-0.4-0.5-0.2c-0.2,0.1-0.3,0.3-0.2,0.5c0.3,0.8-0.3,0.9-0.8,1c-0.3,0.1-0.7,0-1,0
		c0.1-0.1,0.2-0.1,0.4-0.2c1.3-0.3,1.3-0.3,1.5-1.6c0-0.3-0.5-0.7-0.7-0.5c-0.3,0.2-0.6,0.3-0.8,0C66.8,9.4,67,9.2,67.3,9
		c0.1-0.1-0.1-0.2-0.2-0.3c0.2-0.2,0.5-0.2,0.8-0.2c0.2,0.1,0.5,0.3,0.7,0.4c0.2,0.1,0.5,0.2,0.3,0.7C68.7,10,69.4,10.2,69.3,10.6z"
		/>
	<path class="st25" d="M108.7,28.2c0-0.2,0.1-0.5,0-0.6c-0.2-0.2-0.6-0.3-0.2-0.8c0.3-0.4,0.6-0.2,1-0.2c0.1,0.3-0.2,0.7,0.4,0.8
		c0.2,0,0.1,0.3,0,0.4c-0.1,0.2-0.2,0.5-0.5,0.5C109.2,28.3,108.9,28.2,108.7,28.2z"/>
	<path class="st26" d="M42.6,29.5c0.3,0,0.5-0.3,0.9,0c0.3,0.4-0.1,0.5-0.1,0.7c-0.1,0.8-0.4,0.9-1.1,0.6
		C42.3,30.4,42.4,29.9,42.6,29.5z"/>
	<path class="st2" d="M86.3,9.5c0,0.4-0.3,0.4-0.5,0.5c-0.4,0.1-0.6-0.3-0.6-0.6c0-0.3,0.3-0.5,0.6-0.5C86.1,8.8,86.1,9.2,86.3,9.5z
		"/>
	<path class="st27" d="M79.3,16.3c-1.9,0-3.9,0-5.8,0C75.4,16.1,77.4,16.1,79.3,16.3z"/>
	<path class="st28" d="M62.6,19.2c-0.8,0.8-1.8,1.3-2.9,1.6C60.6,20.1,61.6,19.6,62.6,19.2z"/>
	<path class="st28" d="M56.2,23.5c0,0.1,0,0.1,0,0.2c-0.8,0.6-1.1,1.8-2.1,2.1C54.7,24.9,55.4,24.1,56.2,23.5z"/>
	<path class="st29" d="M41.8,30.6c0,0-0.2,0.1-0.4,0c-0.2-0.1-0.3-0.4-0.3-0.4c0,0,0-0.1,0-0.2c0.1-0.2,0.3-0.3,0.3-0.3
		c0.2-0.1,0.3,0,0.3,0c0.2,0.1,0.3,0.3,0.3,0.3c0,0,0,0.2,0,0.3C42,30.5,41.8,30.6,41.8,30.6z"/>
	<path class="st28" d="M58.8,21.4c-0.1,0.2-0.3,0.4-0.3,0.7c0.2,0.3,0.1,0.6-0.3,0.6c-0.1-0.4-0.4-0.3-0.7-0.3
		C57.8,22,58.3,21.7,58.8,21.4z"/>
	<path class="st30" d="M67.9,8.5c-0.2,0.2-0.5,0.2-0.8,0.2c-0.3-0.2-0.2-0.6,0-0.7C67.4,7.9,67.9,8,67.9,8.5z"/>
	<path class="st28" d="M54,25.9c0,0.5-0.4,0.9-0.6,1.4c-0.1,0.3-0.3,0.2-0.5,0.1C53.2,26.9,53.5,26.3,54,25.9z"/>
	<path class="st27" d="M73.5,16.3c-0.9,0.3-1.8,0.4-2.7,0.3C71.7,16.4,72.6,16.3,73.5,16.3z"/>
	<path class="st27" d="M61.8,52.2c0.7,0.1,1.3,0.4,1.8,0.9C62.9,52.8,62.4,52.5,61.8,52.2z"/>
	<path class="st3" d="M46.4,29.1c-0.1-0.1-0.1-0.1-0.2-0.2c-0.6-0.3-1.3-0.6-2-0.2c-0.1,0.4,0.1,0.5,0.5,0.5
		c0.3,0.1,0.5,0.2,0.4,0.6C45,29.9,45,30.2,45,30.4c-0.3,0.7-0.5,1.6-1.6,1.4c-0.2,0-0.2,0.2-0.1,0.3c0.3,0.5,0.9,0.6,1.4,0.6
		c0.5,0,0.8-0.3,1-0.8c0.2-0.5,0.4-1,0.6-1.6c0,0,0,0,0,0c0.1-0.4,0.2-0.7,0.3-1.1c0,0,0-0.1,0-0.1C46.5,29.1,46.4,29.1,46.4,29.1z"
		/>
	<path class="st28" d="M57.5,22.4c-0.3,0.5-0.6,0.9-1.2,1C56.7,23,57,22.6,57.5,22.4z"/>
	<path class="st28" d="M59.7,20.8c0,0.6-0.6,0.5-1,0.7C59,21.1,59.4,20.9,59.7,20.8z"/>
	<path class="st28" d="M63.6,18.8c-0.1,0.7-0.6,0.4-1,0.5C62.9,19,63.2,18.9,63.6,18.8z"/>
	<path class="st27" d="M69.3,17c-0.4,0.3-0.9,0.4-1.5,0.3C68.3,17.1,68.8,16.9,69.3,17z"/>
	<path class="st27" d="M70.8,16.7c-0.4,0.3-0.9,0.4-1.5,0.3C69.8,16.7,70.3,16.7,70.8,16.7z"/>
	<path class="st27" d="M63.9,53.1c0.5,0,1,0.1,1.3,0.5C64.7,53.5,64.3,53.4,63.9,53.1z"/>
	<path class="st27" d="M55.9,48c0.5,0,0.7,0.3,0.8,0.7C56.4,48.5,56.1,48.3,55.9,48z"/>
	<path class="st0" d="M150.2,79.3c0-1.2-0.8-2.1-2-2.1c-2.3,0-4.5-0.1-6.8,0c-1.3,0-2,0.9-2,2.1c0,0.7,0,1.4,0,2.1
		c0,0.6-0.2,0.7-0.7,0.7c-3.2,0-6.4,0-9.6,0c-0.5,0-0.7-0.2-0.7-0.7c0-1.2,0-2.4,0-3.6c0-0.4-0.1-0.6-0.6-0.6c-1,0-2.1,0-3.1,0
		c-0.5,0-0.7,0.1-0.7,0.6c0,1.1,0,2.2,0,3.4c0,0.7-0.2,0.8-0.9,0.8c-3.7,0-7.5,0-11.2,0c-0.8,0-1-0.2-1-1c0-3.5,0-7,0-10.5
		c0-0.6-0.2-0.8-0.8-0.8c-0.9,0.1-1.8,0-2.7,0c-0.5,0-0.7,0.2-0.7,0.7c0,4.2,0,8.3,0,12.5c0,0.6,0.2,1.1,0.8,1.5
		c0.5,0.3,1.1,0.3,1.6,0.3c5.6,0,11.1,0,16.7,0c0.7,0,1.4-0.1,2-0.6c0,0.8,0.5,0.6,0.9,0.6c3.9,0,7.9,0,11.8,0
		c1.2,0,2.3-0.2,2.9-1.4c0,0.2,0,0.3,0,0.5c-0.1,0.8,0.2,1,1,1c1.1-0.1,2.3,0,3.4,0c1.1,0,2-0.9,2-2
		C150.2,81.6,150.1,80.4,150.2,79.3z M144.6,81.9c-0.8,0.2-1-0.2-1-0.9c0.1-1,0-0.9,1.1-1c0.9-0.1,0.9,0.4,1,1.1
		C145.8,81.9,145.3,82,144.6,81.9z"/>
	<path class="st0" d="M104.2,77.2c-1,0-2,0-3,0c-0.6,0-0.7,0.2-0.7,0.8c0,1.1,0,2.2,0,3.4c0,0.5-0.1,0.7-0.6,0.7c-3.3,0-6.5,0-9.8,0
		c-0.5,0-0.6-0.2-0.6-0.6c0-0.7,0-1.4,0-2.2c0-1.2-0.7-2-1.9-2c-2.3,0-4.5,0-6.8,0c-0.9,0-2,1-2,2c0.1,1.3,0,2.6,0,3.9
		c0,1,0.6,1.7,1.7,1.7c0.6,0,1.2,0,1.8,0c2.2,0,2.2,0,2.2-2.2c0-0.5-0.1-0.7-0.6-0.6c-0.5,0.1-0.7-0.2-0.7-0.7c0-1.2,0-1.2,1.1-1.2
		c0.1,0,0.2,0,0.2,0c0.6-0.1,0.8,0.1,0.8,0.7c-0.1,0.6,0,1.2,0,1.8c0,1.5,0.7,2.1,2.1,2.1c2.5,0,5.1,0,7.6,0c0,0,0,0,0,0
		c2.5,0,5.1,0,7.6,0c1.3,0,2.1-0.7,2.1-2.1c0-1.6,0-3.1,0-4.7C104.8,77.4,104.7,77.2,104.2,77.2z"/>
	<path class="st0" d="M15.3,76c-0.2-1.2-0.8-1.9-1.8-2c-1.2-0.1-2,0.4-2.5,1.6c-0.3,0.8-0.6,1.7-1,2.8c-0.4-1.1-0.7-1.9-1.1-2.8
		c-0.4-1.1-1.3-1.7-2.5-1.5c-1,0.1-1.6,0.8-1.8,1.9c-0.4,2.2-0.7,4.3-1.1,6.5c-0.1,0.4-0.1,0.8,0.1,1.2c0.3,0.7,0.8,1.1,1.6,1.1
		c0.7,0,1.4-0.6,1.5-1.4c0.2-0.9,0.3-1.8,0.5-2.7c0.1,0,0.2,0,0.2,0c0.3,0.8,0.5,1.6,0.8,2.3c0.4,1.2,0.9,1.6,1.8,1.6
		c0.9,0,1.4-0.5,1.8-1.6c0.2-0.8,0.5-1.5,0.7-2.3c0.1,0,0.1,0,0.2,0c0.1,0.4,0.1,0.8,0.2,1.2c0.1,0.4,0.1,0.8,0.2,1.3
		c0.2,1.1,1.1,1.8,2,1.6c0.9-0.2,1.4-1.1,1.2-2.2C16,80.3,15.6,78.1,15.3,76z"/>
	<path class="st0" d="M52.2,74c-1.1,0-1.7,0.8-1.7,2.1c0,0.8,0,1.6,0,2.6c-1.3-1.5-2.4-2.7-3.6-4c-0.6-0.7-1.3-0.9-2.1-0.6
		c-0.7,0.3-1,0.9-1,1.7c0.1,2.3,0.1,4.5,0,6.8c0,1.1,0.6,1.9,1.6,1.9c1,0.1,1.8-0.7,1.8-1.8c0-1,0-2,0-2.9c1.2,1.2,2.4,2.2,3.3,3.6
		c0.6,0.9,1.2,1.3,2.1,1.1c0.8-0.2,1.3-0.9,1.3-2c0-2.2,0-4.4,0-6.5C53.9,74.8,53.3,74,52.2,74z"/>
	<path class="st31" d="M74.6,75.4c0-0.9-0.8-1.6-1.6-1.6c-0.9,0-1.5,0.7-1.6,1.7c0,0.6,0,1.2,0,1.8c0,0.2,0,0.5-0.3,0.5
		c-1,0-2.1,0.3-2.9-0.1c-0.5-0.3-0.1-1.3-0.1-2c0-0.1,0-0.1,0-0.2c0-0.9-0.7-1.6-1.5-1.6c-0.9,0-1.6,0.7-1.7,1.6c0,0.6,0,1.3,0,1.9
		c0,1.8,0,3.6,0,5.4c0,1.1,0.7,1.9,1.6,1.9c1,0,1.6-0.7,1.6-1.9c0-0.2,0-0.4,0-0.6c0-1.4,0-1.4,1.3-1.4c2,0,2,0,2,2
		c0,1.1,0.6,1.8,1.5,1.9c1,0,1.7-0.7,1.7-1.8c0-1.2,0-2.4,0-3.6c0,0,0,0,0,0C74.6,78,74.7,76.7,74.6,75.4z"/>
	<path class="st31" d="M25,76.1c-0.5-1.3-1.3-1.9-2.6-1.9c-1.3,0-2.2,0.6-2.6,1.6c-0.7,2.2-1.5,4.3-2.3,6.5c-0.3,1,0,1.8,0.8,2.2
		c0.8,0.3,1.7,0,2-1c0.1-0.4,0.3-0.5,0.7-0.5c0.8,0,1.5,0,2.3,0c0.5,0,0.7,0,1,0.6c0.3,0.8,1.3,1.1,2.1,0.7c0.8-0.4,1.1-1.2,0.8-2
		C26.5,80.3,25.7,78.2,25,76.1z M22.9,80.1c-0.4,0-0.7,0-1.1,0c-0.2,0-0.1-0.2-0.1-0.3c0.2-0.5,0.3-1.1,0.7-1.7
		c0.3,0.5,0.5,1.1,0.6,1.7C23.1,79.9,23.1,80.1,22.9,80.1z"/>
	<path class="st32" d="M62.1,76.2c-0.5-1.4-1.2-2-3.1-2c-0.6,0-1.6,0.3-2,1.3c-0.9,2.3-1.7,4.6-2.5,6.9c-0.3,0.8,0.1,1.5,0.8,1.9
		c0.7,0.3,1.6,0.2,1.9-0.5c0.4-0.9,1-0.9,1.7-0.8c0.6,0,1.2,0,1.8,0c0.3,0,0.5,0.1,0.6,0.4c0.4,1,1.2,1.4,2.1,1.1
		c0.9-0.3,1.2-1.2,0.8-2.3C63.5,80.2,62.8,78.2,62.1,76.2z M59.4,80.2c-0.7,0-0.8-0.2-0.5-0.8c0.2-0.4,0.2-0.9,0.6-1.4
		c0.2,0.5,0.3,1,0.5,1.4C60.3,80.1,60,80.1,59.4,80.2z"/>
	<path class="st33" d="M41.1,75.8c-0.3-0.9-1.3-1.6-2.4-1.6c-1.3,0-2.3,0.6-2.6,1.5c-0.6,1.6-1.1,3.3-1.7,4.9
		c-0.3,0.8-0.5,1.5-0.8,2.3c0.1,0.8,0.4,1.3,1.1,1.5c0.7,0.2,1.5,0.1,1.7-0.6c0.4-1,1.1-0.8,1.8-0.8c0.6,0,1.1,0,1.7,0
		c0.3,0,0.5,0.1,0.7,0.4c0.4,1,1.3,1.4,2.2,1c0.8-0.4,1.1-1.2,0.7-2.2C42.6,80.1,41.8,77.9,41.1,75.8z M39.1,80.1
		c-0.3,0.2-0.7,0.1-1.1,0.1c-0.3,0-0.3-0.3-0.2-0.5c0.2-0.5,0.4-1,0.6-1.6c0.1,0,0.1,0,0.2,0c0.1,0.4,0.3,0.7,0.4,1.1
		C39.1,79.5,39.4,79.8,39.1,80.1z"/>
	<path class="st0" d="M34.5,76.2L34.5,76.2C34.5,76.2,34.5,76.2,34.5,76.2L34.5,76.2c0.4-1-0.1-2-1.2-2c-1.9-0.1-3.7,0-5.6,0
		c-0.7,0-1.2,0.4-1.3,1.2c-0.1,0.7,0.1,1.3,0.9,1.5c0,0,0,0,0,0c0,0,0,0,0,0c0.2,0.2,0.5,0.2,0.7,0.1c0.8-0.1,1,0.3,1,1
		c-0.1,1.7,0,3.4-0.1,5.2c0,0.4,0.1,0.7,0.4,1c0.5,0.6,1.1,0.7,1.8,0.4c0.7-0.3,1-0.8,1-1.6c0-1.7,0-3.3,0-5c0-0.8,0.2-1.1,1-1
		C33.6,77.1,34.2,76.9,34.5,76.2z"/>
	<path class="st0" d="M108.6,31.2c-0.1,0.2-0.1,0.4-0.4,0.5c-0.2,0-0.3-0.1-0.3-0.2c0-0.2,0.1-0.4,0.4-0.5
		C108.5,30.9,108.5,31,108.6,31.2z"/>
	<path class="st27" d="M58.1,22.7c0.2-0.2,0.3-0.4,0.3-0.6c0.2,0,0.4,0.1,0.7-0.1c2.1-1.7,4.6-2.6,7.1-3.5c1.8-0.7,3.7-1,5.6-1.3
		c2.7-0.4,5.5-0.6,8.2-0.1c1.3,0.2,2.6,0.4,3.8,0.7c3.7,0.9,7.2,2.3,10.3,4.6c0.8,0.6,1.7,1.2,2.3,2.1c0.2,0.3,0.4,0.6,0.8,0.6
		c0,0.3,0.2,0.5,0.4,0.7c1.6,1.8,2.7,3.8,3.4,6.1c0.4,1.5,0.8,3,0.7,4.6c-0.1,2.9-1.1,5.6-2.8,8.1c-0.1,0.2-0.3,0.4-0.3,0.7
		c-0.4,0-0.5,0.4-0.7,0.6c-1.8,1.9-3.6,3.7-5.9,5c-1.1,0.6-2.3,1.1-3.4,1.7c-1.5,0.8-3.2,1-4.7,1.6c-0.9,0.4-2,0.4-3,0.5
		c-1.7,0.2-3.5,0.5-5.2,0.3c-2-0.2-4.1-0.2-6.1-0.7c-0.4-0.1-0.9-0.1-1.3-0.1c-0.4-0.4-0.8-0.4-1.3-0.6c-1.4-0.5-2.8-0.8-4-1.4
		c-1.1-0.6-2.3-1.3-3.4-2c-1.4-1-2.7-2.1-4-3.3c-1.6-1.5-2.7-3.3-3.5-5.2c-1.1-2.6-1.4-5.3-1-8.1c0.6-3.4,2.2-6.2,4.5-8.6
		C56.5,24.1,57.2,23.3,58.1,22.7z"/>
	<path class="st0" d="M87.8,59.2c0.3,0,0.5,0,0.5,0.3c0,0.4-0.4,0.4-0.6,0.5c-0.3,0.1-0.4-0.2-0.4-0.4
		C87.3,59.2,87.6,59.3,87.8,59.2z"/>
	<path class="st0" d="M106.6,43.4c-0.1,0.3-0.1,0.6-0.5,0.5c-0.3,0-0.4-0.2-0.4-0.5c0.1-0.3,0.2-0.6,0.5-0.6
		C106.7,42.9,106.6,43.2,106.6,43.4z"/>
	<path class="st0" d="M61.3,58.6c0,0.3,0.1,0.7-0.2,0.9c-0.1,0-0.4-0.1-0.4-0.2C60.7,58.9,61.1,58.8,61.3,58.6z"/>
	<path class="st0" d="M46.6,44.8c-0.2,0.3-0.4,0.6-0.8,0.5c-0.1,0-0.2-0.3-0.1-0.4C45.9,44.6,46.3,44.8,46.6,44.8z"/>
	<path class="st0" d="M51.8,52.2c-0.3,0.3-0.2,0.8-0.7,0.8c-0.1,0-0.3-0.3-0.3-0.3C51.1,52.2,51.4,52.1,51.8,52.2z"/>
	<path class="st0" d="M81.3,10.9c-0.2,0-0.3-0.2-0.3-0.3c0-0.2,0.1-0.3,0.2-0.3c0.2,0,0.3,0.1,0.3,0.3
		C81.5,10.8,81.4,10.9,81.3,10.9z"/>
	<path class="st34" d="M110,37.4c0-0.3-0.1-0.4-0.4-0.4c-0.3,0-0.5,0.1-0.5,0.4c0,0.3,0,0.7,0,1c0.1,0.5-0.2,0.7-0.7,0.6
		c0-0.6,0-1.2,0-1.8c0,0-0.4-0.2-0.7,0c-0.1,0-0.1,0.1-0.2,0.1c0.1,1.1,0.1,1.7-0.1,1.7c-0.1,0-0.2,0-0.3-0.1
		c-0.1-0.4-0.1-0.8-0.1-1.3c0-0.2,0-0.4,0-0.6c-0.7-0.2-1,0.1-0.9,0.8c0.1,0.6,0.1,1.3,0.1,1.9c0,0.4,0.2,0.5,0.5,0.5
		c0.9,0,1.9,0,2.8,0c0.3,0,0.5-0.1,0.5-0.5C110,39.1,110,38.3,110,37.4z"/>
	<path class="st35" d="M72.9,32.3c0.8,2.9,3,4.3,5.7,4.5c2,0.1,3.9-0.5,5.8-1c1.5-0.4,3-0.7,4.6-0.3c0.3,0.1,0.6,0.3,0.9,0.3
		c0.4,0.3,0.7,0.7,1,1.1l0,0c0.2,0.6,0.3,1.2,0,1.8l0,0c-0.2,0.3-0.3,0.7-0.7,0.8c-1,0.5-1.8,0.4-2.7-0.3c-0.5-0.4-1.1-0.5-1.7-0.3
		c-1.2-0.1-2.3,0.1-3.4,0.4c-2.2,0.5-4.5,0.6-6.7,0.2c-1.5-0.2-2.8-0.8-3.9-1.8c-0.5-0.4-0.8-0.8-1.1-1.3c-0.3-0.7-0.5-1.4-0.8-2
		c-0.4-1.2-0.4-2.4-0.4-3.6c0-1.2-0.1-2.3-0.6-3.4c-0.9-1.9-2.5-2.6-4.4-2.9c-0.4-0.1-0.9-0.1-1.3-0.1c-0.8,0.1-1-0.4-1-1
		c0-0.6,0-1.1,0-1.7c0-0.5,0.2-0.7,0.7-0.7c2.4-0.1,4.7,0,6.8,1.5c0.9,0.7,1.6,1.5,2.2,2.5c0.6,1.5,0.8,3,0.8,4.6
		C72.4,30.5,72.7,31.4,72.9,32.3z"/>
	<path class="st36" d="M70.5,36.4c0.1,0.1,0.3,0.1,0.3,0.2c1.6,2,3.7,2.7,6.1,2.9c1.8,0.1,3.7,0,5.5-0.5c1.1-0.3,2.1-0.4,3.2-0.3
		c0.3,0.1,0.4,0.3,0.4,0.6c0,0.5-0.1,1,0,1.5c0.3,3.6,1.3,6.9,3.8,9.9c-1.3,0-2.5,0-3.7,0c-0.4,0-0.4-0.4-0.5-0.6
		c-0.8-2.3-1.6-4.6-2.3-7c-0.2-0.5-0.4-0.6-0.9-0.5c-3.4,0.5-6.7,0.1-9.9-1.5C72.1,41,72,41,71.9,41.5c-0.8,2.8-1.6,5.7-2.4,8.5
		c-0.1,0.5-0.4,0.7-0.9,0.7c-0.6-0.1-1.3,0-1.9,0c-0.6,0-0.6-0.1-0.5-0.7C67.6,45.5,69,41,70.5,36.4z"/>
	<path class="st37" d="M72.9,32.3c-0.5-0.5-0.3-1.3-0.4-1.9c-0.3-1.8-0.2-3.7-0.8-5.5c0.5,0.6,0.5,1.2,0.7,1.9
		c0.4,1.4,0,2.9,0.5,4.3C72.9,31.5,72.8,31.9,72.9,32.3z"/>
	<path class="st38" d="M86.1,40.9c-0.1-0.5-0.1-1-0.1-1.5c0-0.3-0.1-0.6-0.4-0.7c0.7-0.1,1.3,0.1,1.9,0.5c0.7,0.4,1.4,0.8,2.2,0.2
		c0.1-0.1,0.3,0,0.4,0c0.1,0.2-0.1,0.2-0.2,0.3c-0.8,0.5-1.7,0.4-2.4-0.1c-0.2-0.2-0.5-0.2-0.7-0.4c-0.5-0.3-0.7-0.1-0.7,0.4
		C86.1,40.1,86.1,40.5,86.1,40.9z"/>
	<path class="st39" d="M90.8,38.7c0-0.6,0-1.2,0-1.8C91.2,37.5,91.2,38.3,90.8,38.7z"/>
	<path class="st39" d="M90,39.7c0.1-0.1,0.1-0.2,0.2-0.3c0.4-0.1,0.2-0.6,0.6-0.6C90.8,39.3,90.6,39.6,90,39.7z"/>
	<path class="st39" d="M90.8,37c-0.3-0.4-0.6-0.7-1-1.1C90.4,36,90.8,36.3,90.8,37z"/>
</g>
<path class="st7" d="M780.4,1059.4"/>
</svg>
